<?xml version="1.0" encoding="UTF-8" standalone="no"?>
<svg
   xmlns:dc="http://purl.org/dc/elements/1.1/"
   xmlns:cc="http://creativecommons.org/ns#"
   xmlns:rdf="http://www.w3.org/1999/02/22-rdf-syntax-ns#"
   xmlns:svg="http://www.w3.org/2000/svg"
   xmlns="http://www.w3.org/2000/svg"
   xmlns:xlink="http://www.w3.org/1999/xlink"
   xmlns:sodipodi="http://sodipodi.sourceforge.net/DTD/sodipodi-0.dtd"
   xmlns:inkscape="http://www.inkscape.org/namespaces/inkscape"
   viewBox="0 0 122.36775 240.61453"
   version="1.1"
   id="svg3965"
   sodipodi:docname="arch_logos.svg"
   inkscape:version="0.92.2 5c3e80d, 2017-08-06">
  <metadata
     id="metadata3969">
    <rdf:RDF>
      <cc:Work
         rdf:about="">
        <dc:format>image/svg+xml</dc:format>
        <dc:type
           rdf:resource="http://purl.org/dc/dcmitype/StillImage" />
      </cc:Work>
    </rdf:RDF>
  </metadata>
  <sodipodi:namedview
     pagecolor="#ffffff"
     bordercolor="#666666"
     borderopacity="1"
     objecttolerance="10"
     gridtolerance="10"
     guidetolerance="10"
     inkscape:pageopacity="0"
     inkscape:pageshadow="2"
     inkscape:window-width="1280"
     inkscape:window-height="755"
     id="namedview3967"
     showgrid="false"
     inkscape:zoom="3.3145207"
     inkscape:cx="100.16777"
     inkscape:cy="149.19127"
     inkscape:window-x="0"
     inkscape:window-y="1"
     inkscape:window-maximized="1"
     inkscape:current-layer="layer 1" />
  <defs
     id="defs4">
    <linearGradient
       id="WhiteTransparent"
       gradientUnits="userSpaceOnUse">
      <stop
         id="stop7"
         style="stop-color:#ffffff;stop-opacity:1"
         offset="0" />
      <stop
         id="stop9"
         style="stop-color:#ffffff;stop-opacity:0"
         offset="1" />
    </linearGradient>
    <linearGradient
       x1="0"
       y1="128"
       x2="0"
       y2="76"
       id="liquidSpecular"
       xlink:href="#WhiteTransparent"
       gradientUnits="userSpaceOnUse" />
    <linearGradient
       x1="80"
       y1="20"
       x2="60"
       y2="40"
       id="sideSpecular"
       xlink:href="#WhiteTransparent"
       gradientUnits="userSpaceOnUse" />
    <clipPath
       id="clipoutline1">
      <path
         d="M 54.1,12.5 12.9,54.7 C -2.7,70.3 23,69 32.3,74.9 36.6,77.7 18.5,81.3 22.2,85 c 3.6,3.7 21.7,7.1 25.3,10.7 3.6,3.7 -7.3,7.6 -3.7,11.3 3.5,3.7 11.9,0.2 13.4,8.6 1.1,6.2 15.4,3.1 21.8,-2.2 4,-3.4 -6.9,-3.4 -3.3,-7.1 9,-9.1 17,-4.1 20.3,-12.5 1.8,-4.5 -13.6,-7.7 -9.5,-10.6 9.8,-6.9 45.8,-10.4 29.2,-27 L 73,12.5 c -5.3,-5 -14,-5 -18.9,0 z m -9.9,64.7 c 0.9,0 30.8,4 19.3,7.1 -4.4,1.2 -24.6,-7.1 -19.3,-7.1 z m 57.2,16.6 c 0,2.1 16.3,3.3 15.4,-0.5 -1.3,-6.4 -13.6,-5.9 -15.4,0.5 z m -69.5,11.1 c 3.7,3.2 9.3,-0.7 11.1,-5.2 -3.6,-4.7 -16.9,0.3 -11.1,5.2 z m 67.5,-6.7 c -4.6,4.2 0.8,8.6 5.3,5.7 1.2,-0.8 -0.1,-4.7 -5.3,-5.7 z"
         id="outline1"
         inkscape:connector-curvature="0" />
    </clipPath>
    <linearGradient
       x1="82.118591"
       y1="20"
       x2="60"
       y2="40"
       id="linearGradient9175"
       xlink:href="#linearGradient5785"
       gradientUnits="userSpaceOnUse" />
    <linearGradient
       id="linearGradient5785"
       gradientUnits="userSpaceOnUse">
      <stop
         id="stop5787"
         style="stop-color:#c0cdf9;stop-opacity:1"
         offset="0" />
      <stop
         id="stop5789"
         style="stop-color:#07092d;stop-opacity:0.28804347"
         offset="1" />
    </linearGradient>
    <filter
       id="filter8490"
       style="color-interpolation-filters:sRGB">
      <feGaussianBlur
         id="feGaussianBlur8492"
         stdDeviation="2.4163949"
         inkscape:collect="always" />
    </filter>
    <filter
       id="filter6017-3"
       style="color-interpolation-filters:sRGB">
      <feGaussianBlur
         id="feGaussianBlur6019-9"
         stdDeviation="0.80546496"
         inkscape:collect="always" />
    </filter>
    <filter
       id="filter6031-0"
       style="color-interpolation-filters:sRGB">
      <feGaussianBlur
         id="feGaussianBlur6033-8"
         stdDeviation="3.4903482"
         inkscape:collect="always" />
    </filter>
    <linearGradient
       x1="82.118591"
       y1="20"
       x2="60"
       y2="40"
       id="linearGradient9175-3"
       xlink:href="#linearGradient5785-8"
       gradientUnits="userSpaceOnUse" />
    <linearGradient
       id="linearGradient5785-8"
       gradientUnits="userSpaceOnUse">
      <stop
         id="stop5787-7"
         style="stop-color:#c0cdf9;stop-opacity:1"
         offset="0" />
      <stop
         id="stop5789-3"
         style="stop-color:#07092d;stop-opacity:0.28804347"
         offset="1" />
    </linearGradient>
    <clipPath
       id="clipPath9086-1">
      <use
         transform="translate(1.0095461e-6)"
         id="use9088-0"
         style="opacity:0.25;fill:#ffffff;fill-opacity:1"
         x="0"
         y="0"
         width="400"
         height="300"
         xlink:href="#outline1" />
    </clipPath>
    <filter
       id="filter8490-0"
       style="color-interpolation-filters:sRGB">
      <feGaussianBlur
         id="feGaussianBlur8492-5"
         stdDeviation="2.4163949"
         inkscape:collect="always" />
    </filter>
    <linearGradient
       x1="33"
       y1="35"
       x2="58"
       y2="60"
       id="shinySpecular-0"
       xlink:href="#WhiteTransparent-3"
       gradientUnits="userSpaceOnUse"
       gradientTransform="matrix(1.009184,0,0,1.009184,-0.3890738,-0.3831933)" />
    <linearGradient
       id="WhiteTransparent-3"
       gradientUnits="userSpaceOnUse">
      <stop
         id="stop7606-1"
         style="stop-color:#ffffff;stop-opacity:1"
         offset="0" />
      <stop
         id="stop7608-8"
         style="stop-color:#ffffff;stop-opacity:0"
         offset="1" />
    </linearGradient>
    <linearGradient
       x1="60"
       y1="20"
       x2="90"
       y2="50"
       id="IcecapTip-0"
       xlink:href="#WhiteTransparent-3"
       gradientUnits="userSpaceOnUse" />
    <radialGradient
       cx="116.31038"
       cy="250.89737"
       r="30.599579"
       fx="116.31038"
       fy="250.89737"
       id="radialGradient9177-1"
       xlink:href="#linearGradient8568-7"
       gradientUnits="userSpaceOnUse"
       gradientTransform="matrix(1.5700516,0,0,1.0509301,-75.500107,-22.095908)" />
    <linearGradient
       id="linearGradient8568-7">
      <stop
         id="stop8570-9"
         style="stop-color:#ffffff;stop-opacity:1"
         offset="0" />
      <stop
         id="stop8572-1"
         style="stop-color:#ffffff;stop-opacity:0"
         offset="1" />
    </linearGradient>
    <radialGradient
       cx="132.44434"
       cy="251.99396"
       r="30.599579"
       fx="132.44434"
       fy="251.99396"
       id="radialGradient8574-0"
       xlink:href="#linearGradient8568-7"
       gradientUnits="userSpaceOnUse"
       gradientTransform="matrix(2.0032532,0,0,1.340898,-132.8752,-95.166065)" />
    <filter
       height="1.2284414"
       y="-0.11422065"
       width="1.1561583"
       x="-0.078079157"
       id="filter8732-3"
       style="color-interpolation-filters:sRGB">
      <feGaussianBlur
         id="feGaussianBlur8734-5"
         stdDeviation="1.9579068"
         inkscape:collect="always" />
    </filter>
    <radialGradient
       cx="210.25"
       cy="168.5"
       r="34.25"
       fx="210.25"
       fy="168.5"
       id="radialGradient8744-9"
       xlink:href="#linearGradient8738-4"
       gradientUnits="userSpaceOnUse"
       gradientTransform="matrix(1,0,0,0.4233577,0,97.164234)" />
    <linearGradient
       id="linearGradient8738-4">
      <stop
         id="stop8740-8"
         style="stop-color:#ffffff;stop-opacity:1"
         offset="0" />
      <stop
         id="stop8742-4"
         style="stop-color:#ffffff;stop-opacity:0"
         offset="1" />
    </linearGradient>
    <radialGradient
       cx="217.5"
       cy="182.08189"
       r="34.25"
       fx="217.5"
       fy="182.08189"
       id="radialGradient8768-6"
       xlink:href="#linearGradient8738-4"
       gradientUnits="userSpaceOnUse"
       gradientTransform="matrix(1,0,0,0.4233577,0,97.164234)" />
    <filter
       height="1.3508246"
       y="-0.1754123"
       width="1.1485243"
       x="-0.074262142"
       id="filter8764-9"
       style="color-interpolation-filters:sRGB">
      <feGaussianBlur
         id="feGaussianBlur8766-2"
         stdDeviation="2.1195652"
         inkscape:collect="always" />
    </filter>
    <linearGradient
       x1="231.625"
       y1="195.1875"
       x2="231.75"
       y2="201.5"
       id="linearGradient8912-9"
       xlink:href="#linearGradient8866-0"
       gradientUnits="userSpaceOnUse" />
    <linearGradient
       id="linearGradient8866-0">
      <stop
         id="stop8868-3"
         style="stop-color:#ffffff;stop-opacity:1"
         offset="0" />
      <stop
         id="stop8870-0"
         style="stop-color:#ffffff;stop-opacity:0"
         offset="1" />
    </linearGradient>
    <linearGradient
       x1="231.37646"
       y1="195.62132"
       x2="231.37646"
       y2="200.07138"
       id="linearGradient8910-3"
       xlink:href="#linearGradient8866-0"
       gradientUnits="userSpaceOnUse" />
    <filter
       height="1.556464"
       y="-0.27823201"
       width="1.1708827"
       x="-0.085441329"
       id="filter8906-3"
       style="color-interpolation-filters:sRGB">
      <feGaussianBlur
         id="feGaussianBlur8908-7"
         stdDeviation="0.56515877"
         inkscape:collect="always" />
    </filter>
    <radialGradient
       cx="228.21875"
       cy="204.83229"
       r="14.09375"
       fx="228.21875"
       fy="204.83229"
       id="radialGradient8922-9"
       xlink:href="#linearGradient8916-4"
       gradientUnits="userSpaceOnUse"
       gradientTransform="matrix(1,0,0,0.1477455,0,174.56924)" />
    <linearGradient
       id="linearGradient8916-4">
      <stop
         id="stop8918-9"
         style="stop-color:#ffffff;stop-opacity:1"
         offset="0" />
      <stop
         id="stop8920-9"
         style="stop-color:#ffffff;stop-opacity:0"
         offset="1" />
    </linearGradient>
    <filter
       height="1.9457178"
       y="-0.47285891"
       width="1.1397254"
       x="-0.069862768"
       id="filter8980-1"
       style="color-interpolation-filters:sRGB">
      <feGaussianBlur
         id="feGaussianBlur8982-9"
         stdDeviation="0.82052366"
         inkscape:collect="always" />
    </filter>
    <linearGradient
       x1="231.625"
       y1="195.1875"
       x2="231.75"
       y2="201.5"
       id="linearGradient8990-4"
       xlink:href="#linearGradient8866-0"
       gradientUnits="userSpaceOnUse" />
    <linearGradient
       x1="231.37646"
       y1="195.62132"
       x2="231.37646"
       y2="200.07138"
       id="linearGradient8992-2"
       xlink:href="#linearGradient8866-0"
       gradientUnits="userSpaceOnUse" />
    <radialGradient
       cx="228.21875"
       cy="204.83229"
       r="14.09375"
       fx="228.21875"
       fy="204.83229"
       id="radialGradient8994-0"
       xlink:href="#linearGradient8916-4"
       gradientUnits="userSpaceOnUse"
       gradientTransform="matrix(1,0,0,0.1477455,0,174.56924)" />
    <radialGradient
       cx="89.875"
       cy="187.86935"
       r="22.75"
       fx="89.875"
       fy="187.86935"
       id="radialGradient9004-6"
       xlink:href="#linearGradient8998-5"
       gradientUnits="userSpaceOnUse"
       gradientTransform="matrix(1,0,0,0.4070844,0,115.76014)" />
    <linearGradient
       id="linearGradient8998-5">
      <stop
         id="stop9000-9"
         style="stop-color:#ffffff;stop-opacity:0.33004925"
         offset="0" />
      <stop
         id="stop9002-5"
         style="stop-color:#ffffff;stop-opacity:0"
         offset="1" />
    </linearGradient>
    <linearGradient
       x1="231.625"
       y1="195.1875"
       x2="231.75"
       y2="201.5"
       id="linearGradient9023-6"
       xlink:href="#linearGradient8866-0"
       gradientUnits="userSpaceOnUse" />
    <linearGradient
       x1="231.37646"
       y1="195.62132"
       x2="231.37646"
       y2="200.07138"
       id="linearGradient9025-1"
       xlink:href="#linearGradient8866-0"
       gradientUnits="userSpaceOnUse" />
    <radialGradient
       cx="90.28125"
       cy="230.83626"
       r="10.46875"
       fx="90.28125"
       fy="230.83626"
       id="radialGradient9046-1"
       xlink:href="#linearGradient9040-4"
       gradientUnits="userSpaceOnUse"
       gradientTransform="matrix(1.1850746,-0.3283582,0.1228557,0.4433973,-45.068314,152.92161)" />
    <linearGradient
       id="linearGradient9040-4">
      <stop
         id="stop9042-3"
         style="stop-color:#ffffff;stop-opacity:1"
         offset="0" />
      <stop
         id="stop9044-7"
         style="stop-color:#ffffff;stop-opacity:0"
         offset="1" />
    </linearGradient>
    <filter
       height="1.3311402"
       y="-0.1655701"
       width="1.1523587"
       x="-0.076179281"
       id="filter9068-2"
       style="color-interpolation-filters:sRGB">
      <feGaussianBlur
         id="feGaussianBlur9070-7"
         stdDeviation="0.66458488"
         inkscape:collect="always" />
    </filter>
    <radialGradient
       cx="68.39994"
       cy="21.225746"
       r="54.783398"
       fx="68.39994"
       fy="21.225746"
       id="radialGradient11553-3"
       xlink:href="#linearGradient9286-3"
       gradientUnits="userSpaceOnUse"
       gradientTransform="matrix(1.7221535,0,0,1.6949765,-49.39526,-14.078057)" />
    <linearGradient
       id="linearGradient9286-3">
      <stop
         id="stop9288-9"
         style="stop-color:#ffffff;stop-opacity:1"
         offset="0" />
      <stop
         id="stop9290-2"
         style="stop-color:#ffffff;stop-opacity:0"
         offset="1" />
    </linearGradient>
    <filter
       id="filter9298-4"
       style="color-interpolation-filters:sRGB">
      <feGaussianBlur
         id="feGaussianBlur9300-4"
         stdDeviation="0.32610678"
         inkscape:collect="always" />
    </filter>
    <linearGradient
       x1="95.5"
       y1="208.16444"
       x2="153.5"
       y2="223.5"
       id="linearGradient5905-4"
       xlink:href="#linearGradient5899-9"
       gradientUnits="userSpaceOnUse" />
    <linearGradient
       id="linearGradient5899-9">
      <stop
         id="stop5901-9"
         style="stop-color:#ffffff;stop-opacity:1"
         offset="0" />
      <stop
         id="stop5903-3"
         style="stop-color:#ffffff;stop-opacity:0"
         offset="1" />
    </linearGradient>
    <filter
       height="1.2446715"
       y="-0.12233575"
       width="1.165018"
       x="-0.082508981"
       id="filter5983-8"
       style="color-interpolation-filters:sRGB">
      <feGaussianBlur
         id="feGaussianBlur5985-3"
         stdDeviation="3.6868363"
         inkscape:collect="always" />
    </filter>
    <linearGradient
       x1="57.225197"
       y1="76.246338"
       x2="53.63158"
       y2="84.480316"
       id="linearGradient5801-2"
       xlink:href="#linearGradient5793-9"
       gradientUnits="userSpaceOnUse"
       gradientTransform="matrix(0.8852575,0,0,0.8852575,5.1772151,9.2293372)" />
    <linearGradient
       id="linearGradient5793-9">
      <stop
         id="stop5795-5"
         style="stop-color:#eeeeec;stop-opacity:1"
         offset="0" />
      <stop
         id="stop5797-4"
         style="stop-color:#eeeeec;stop-opacity:0"
         offset="1" />
    </linearGradient>
    <radialGradient
       cx="181.22731"
       cy="214.55121"
       r="22.466398"
       fx="181.22731"
       fy="214.55121"
       id="radialGradient5811-3"
       xlink:href="#linearGradient5805-9"
       gradientUnits="userSpaceOnUse"
       gradientTransform="matrix(1.3515234,0,0,1.7175707,-63.705646,-153.95568)" />
    <linearGradient
       id="linearGradient5805-9">
      <stop
         id="stop5807-4"
         style="stop-color:#ffffff;stop-opacity:1"
         offset="0" />
      <stop
         id="stop5809-9"
         style="stop-color:#ffffff;stop-opacity:0"
         offset="1" />
    </linearGradient>
    <filter
       id="filter5845-5"
       style="color-interpolation-filters:sRGB">
      <feGaussianBlur
         id="feGaussianBlur5847-5"
         stdDeviation="1.2409356"
         inkscape:collect="always" />
    </filter>
    <linearGradient
       x1="73.712105"
       y1="180.47572"
       x2="82.754066"
       y2="187.65974"
       id="linearGradient5822-7"
       xlink:href="#WhiteTransparent-3"
       gradientUnits="userSpaceOnUse"
       gradientTransform="matrix(0.4927913,0,0,0.4927913,-6.0003885,-9.7225182)" />
    <linearGradient
       id="linearGradient10981-3-9">
      <stop
         id="stop10983-2-0"
         style="stop-color:#729fcf;stop-opacity:1"
         offset="0" />
      <stop
         id="stop10985-3-7"
         style="stop-color:#729fcf;stop-opacity:0"
         offset="1" />
    </linearGradient>
    <filter
       id="filter10997-7-2"
       style="color-interpolation-filters:sRGB">
      <feGaussianBlur
         id="feGaussianBlur10999-0-7"
         stdDeviation="2.7696726"
         inkscape:collect="always" />
    </filter>
    <linearGradient
       x1="180.81293"
       y1="217.5"
       x2="153.70045"
       y2="144.5"
       id="linearGradient1539"
       xlink:href="#linearGradient10981-3-9"
       gradientUnits="userSpaceOnUse"
       gradientTransform="translate(-130.16572,-83.352786)" />
    <linearGradient
       id="b"
       x1="-0.34799999"
       x2="1.251"
       gradientTransform="matrix(-38.064915,77.652126,-77.652126,-38.064915,258.72325,244.62943)"
       gradientUnits="userSpaceOnUse">
      <stop
         offset=".3"
         stop-color="#3E863D"
         id="stop918" />
      <stop
         offset=".5"
         stop-color="#55934F"
         id="stop920" />
      <stop
         offset=".8"
         stop-color="#5AAD45"
         id="stop922" />
    </linearGradient>
    <linearGradient
       id="d"
       x1="-0.456"
       x2="0.58200002"
       gradientTransform="matrix(106.8057,-78.916731,78.916731,106.8057,235.18824,285.39477)"
       gradientUnits="userSpaceOnUse">
      <stop
         offset=".57"
         stop-color="#3E863D"
         id="stop925" />
      <stop
         offset=".72"
         stop-color="#619857"
         id="stop927" />
      <stop
         offset="1"
         stop-color="#76AC64"
         id="stop929" />
    </linearGradient>
    <linearGradient
       id="f"
       x1="0.043000001"
       x2="0.98400003"
       gradientTransform="matrix(97.417,0,0,97.417,192.862,279.652)"
       gradientUnits="userSpaceOnUse">
      <stop
         offset=".16"
         stop-color="#6BBF47"
         id="stop932" />
      <stop
         offset=".38"
         stop-color="#79B461"
         id="stop934" />
      <stop
         offset=".47"
         stop-color="#75AC64"
         id="stop936" />
      <stop
         offset=".7"
         stop-color="#659E5A"
         id="stop938" />
      <stop
         offset=".9"
         stop-color="#3E863D"
         id="stop940" />
    </linearGradient>
    <clipPath
       id="a">
      <path
         d="m 239.03,226.605 -42.13,24.317 a 5.085,5.085 0 0 0 -2.546,4.406 v 48.668 c 0,1.817 0.968,3.496 2.546,4.406 l 42.133,24.336 a 5.1,5.1 0 0 0 5.09,0 l 42.126,-24.336 a 5.096,5.096 0 0 0 2.54,-4.406 v -48.668 c 0,-1.816 -0.97,-3.496 -2.55,-4.406 l -42.12,-24.317 a 5.123,5.123 0 0 0 -5.1,0"
         id="path943"
         inkscape:connector-curvature="0" />
    </clipPath>
    <clipPath
       id="c">
      <path
         d="m 195.398,307.086 c 0.403,0.523 0.907,0.976 1.5,1.316 l 36.14,20.875 6.02,3.46 c 0.9,0.52 1.926,0.74 2.934,0.665 0.336,-0.027 0.672,-0.09 1,-0.183 l 44.434,-81.36 c -0.34,-0.37 -0.738,-0.68 -1.184,-0.94 l -27.586,-15.93 -14.582,-8.39 a 5.318,5.318 0 0 0 -1.32,-0.53 z m 0,0"
         id="path946"
         inkscape:connector-curvature="0" />
    </clipPath>
    <clipPath
       id="e">
      <path
         d="m 241.066,225.953 a 5.14,5.14 0 0 0 -2.035,0.652 l -42.01,24.247 45.3,82.51 c 0.63,-0.09 1.25,-0.3 1.81,-0.624 l 42.13,-24.336 a 5.105,5.105 0 0 0 2.46,-3.476 l -46.18,-78.89 a 5.29,5.29 0 0 0 -1.03,-0.102 c -0.14,0 -0.28,0.007 -0.42,0.02"
         id="path949"
         inkscape:connector-curvature="0" />
    </clipPath>
  </defs>
  <style
     type="text/css"
     id="style26" />
  <g
     id="layer 1"
     inkscape:label="Layer 1"
     inkscape:groupmode="layer"
     style="display:inline"
     transform="translate(11.163002,28.058355)">
    <g
       id="g4525"
       transform="translate(-10.311243,12.343315)">
      <path
         style="fill:#10aa50"
         inkscape:connector-curvature="0"
         id="path3883"
         d="M 11.71,10.41 C 10.31,4.33 7.39,2.71 6.65,1.57 6.34,1.06 6.07,0.54 5.84,0 5.8,0.54 5.73,0.88 5.26,1.29 4.32,2.11 0.35,5.3 0.01,12.21 -0.3,18.65 4.82,22.62 5.5,23.03 c 0.52,0.25 1.15,0 1.46,-0.23 2.47,-1.67 5.84,-6.11 4.75,-12.39" />
      <path
         style="fill:#b8c4c2"
         inkscape:connector-curvature="0"
         id="path3885"
         d="m 5.95,19.5 c -0.13,1.58 -0.23,2.5 -0.57,3.4 0,0 0.23,1.51 0.38,3.1 H 6.32 C 6.45,24.88 6.65,23.76 6.92,22.66 6.21,22.33 5.98,20.89 5.95,19.5 Z" />
      <path
         style="fill:#12924f"
         inkscape:connector-curvature="0"
         id="path3887"
         d="m 7.03,22.75 v 0 C 6.34,22.43 6.14,20.94 6.11,19.55 6.28,17.25 6.33,14.95 6.26,12.64 6.22,11.44 6.28,1.46 5.96,0 6.18,0.49 6.43,0.97 6.7,1.44 c 0.74,1.15 3.63,2.77 5.01,8.88 1.08,6.29 -2.24,10.74 -4.68,12.43 z" />
      <path
         style="fill:#21313c"
         inkscape:connector-curvature="0"
         id="path3889"
         d="m 98.46,20.65 c -0.85,0 -1.53,-0.68 -1.54,-1.53 0,-0.84 0.68,-1.52 1.53,-1.53 0.84,-0.01 1.54,0.66 1.55,1.51 0.01,0.41 -0.15,0.8 -0.44,1.1 -0.29,0.29 -0.69,0.45 -1.1,0.45 z m 0,-2.92 c -0.57,-0.01 -1.08,0.33 -1.3,0.85 -0.22,0.52 -0.1,1.12 0.3,1.52 0.4,0.4 1,0.52 1.52,0.31 0.53,-0.22 0.87,-0.72 0.87,-1.29 0.01,-0.37 -0.13,-0.73 -0.4,-0.99 -0.26,-0.26 -0.62,-0.41 -0.99,-0.4 z m 0.37,2.35 -0.39,-0.85 h -0.32 v 0.85 h -0.24 v -1.93 h 0.58 c 0.42,0 0.6,0.18 0.6,0.54 0,0.28 -0.13,0.46 -0.38,0.52 l 0.41,0.87 z m -0.71,-1.05 h 0.34 c 0.27,0 0.38,-0.09 0.38,-0.34 0,-0.24 -0.1,-0.33 -0.41,-0.33 h -0.31 z" />
      <path
         style="fill:#21313c"
         inkscape:connector-curvature="0"
         id="path3891"
         d="m 75.97,19.27 c 0.41,0.32 1.23,0.46 1.95,0.46 0.93,0 1.84,-0.18 2.73,-0.98 0.91,-0.83 1.54,-2.09 1.54,-4.11 0,-1.93 -0.74,-3.51 -2.25,-4.43 -0.86,-0.53 -1.97,-0.74 -3.23,-0.74 -0.36,0 -0.74,0.01 -0.95,0.11 -0.09,0.07 -0.15,0.17 -0.17,0.27 -0.04,0.35 -0.04,2.98 -0.04,4.53 0,1.59 0,3.81 0.04,4.08 0.02,0.24 0.13,0.64 0.38,0.81 M 72.1,8.6 c 0.33,0 1.58,0.06 2.17,0.06 1.09,0 1.84,-0.06 3.88,-0.06 1.71,0 3.14,0.46 4.17,1.34 1.25,1.08 1.91,2.58 1.91,4.4 0,2.59 -1.18,4.08 -2.37,4.93 -1.18,0.88 -2.72,1.38 -4.91,1.38 -1.16,0 -3.16,-0.04 -4.83,-0.06 h -0.03 c -0.08,-0.15 0.14,-0.75 0.27,-0.77 0.46,-0.05 0.58,-0.07 0.79,-0.15 0.35,-0.15 0.43,-0.33 0.47,-0.96 0.06,-1.19 0.04,-2.61 0.04,-4.22 0,-1.15 0.02,-3.39 -0.02,-4.1 C 73.58,9.79 73.33,9.64 72.82,9.52 72.46,9.45 72.1,9.39 71.73,9.35 71.7,9.24 71.99,8.72 72.09,8.6" />
      <path
         style="fill:#21313c"
         inkscape:connector-curvature="0"
         id="path3893"
         d="m 89,9.54 c -0.07,0.02 -0.17,0.21 -0.17,0.31 -0.02,0.69 -0.04,2.49 -0.04,3.73 0.01,0.05 0.05,0.09 0.1,0.1 0.25,0.02 0.87,0.04 1.39,0.04 0.73,0 1.15,-0.1 1.39,-0.21 0.61,-0.31 0.9,-0.98 0.9,-1.71 0,-1.67 -1.16,-2.3 -2.88,-2.3 -0.23,0 -0.46,0.01 -0.69,0.04 m 4.38,7.66 c 0,-1.68 -1.24,-2.64 -3.49,-2.64 -0.1,0 -0.82,-0.02 -0.99,0.02 -0.05,0.02 -0.11,0.05 -0.11,0.09 0,1.21 -0.02,3.14 0.04,3.91 0.04,0.32 0.27,0.78 0.56,0.92 0.3,0.17 1,0.21 1.48,0.21 1.33,0 2.51,-0.75 2.51,-2.51 M 85.52,8.6 c 0.17,0 0.69,0.06 2,0.06 1.23,0 2.23,-0.04 3.43,-0.04 1.48,0 3.53,0.54 3.53,2.76 0,1.09 -0.77,1.97 -1.78,2.39 -0.05,0.02 -0.05,0.06 0,0.08 1.43,0.36 2.68,1.24 2.68,2.93 0,1.65 -1.02,2.68 -2.5,3.33 -0.91,0.4 -2.03,0.54 -3.16,0.54 -0.87,0 -3.2,-0.09 -4.49,-0.08 -0.13,-0.06 0.12,-0.67 0.24,-0.77 0.3,0 0.59,-0.05 0.87,-0.13 0.47,-0.12 0.52,-0.27 0.58,-0.96 0.04,-0.59 0.04,-2.72 0.04,-4.23 0,-2.07 0.02,-3.46 0,-4.15 C 86.94,9.79 86.75,9.62 86.38,9.52 86.09,9.46 85.61,9.41 85.22,9.35 85.13,9.25 85.42,8.68 85.52,8.6" />
      <path
         style="fill:#21313c"
         inkscape:connector-curvature="0"
         id="path3895"
         d="m 15.95,20.65 c -0.05,-0.13 -0.07,-0.26 -0.06,-0.39 0,-0.09 0.02,-0.18 0.06,-0.26 0.25,-0.04 0.5,-0.09 0.75,-0.15 0.35,-0.09 0.48,-0.28 0.5,-0.72 0.05,-1.04 0.06,-2.98 0.04,-4.35 v -0.04 c 0,-0.15 0,-0.35 -0.19,-0.49 -0.32,-0.2 -0.67,-0.36 -1.03,-0.46 -0.16,-0.05 -0.26,-0.13 -0.25,-0.23 0,-0.1 0.11,-0.22 0.32,-0.26 0.57,-0.06 2.05,-0.41 2.63,-0.68 0.06,0.08 0.09,0.17 0.08,0.27 0,0.06 -0.01,0.13 -0.02,0.19 -0.02,0.19 -0.03,0.41 -0.03,0.63 0,0.06 0.04,0.1 0.09,0.12 0.05,0.02 0.11,0 0.15,-0.03 1.11,-0.87 2.1,-1.18 2.61,-1.18 0.84,0 1.49,0.4 1.99,1.22 0.03,0.04 0.07,0.07 0.12,0.07 0.04,0 0.08,-0.02 0.1,-0.06 1.02,-0.77 2.03,-1.23 2.71,-1.23 1.59,0 2.55,1.19 2.55,3.19 0,0.57 -0.01,1.3 -0.01,1.98 -0.01,0.6 -0.01,1.16 -0.01,1.54 0,0.1 0.12,0.36 0.31,0.41 0.24,0.11 0.57,0.17 1,0.25 h 0.02 c 0.03,0.11 -0.04,0.56 -0.1,0.65 -0.11,0 -0.26,-0.01 -0.44,-0.02 -0.33,-0.02 -0.79,-0.04 -1.31,-0.04 -1.07,0 -1.62,0.02 -2.15,0.05 -0.04,-0.13 -0.05,-0.55 0,-0.64 0.21,-0.04 0.43,-0.09 0.65,-0.15 0.33,-0.11 0.43,-0.26 0.45,-0.71 0.01,-0.32 0.07,-3.12 -0.04,-3.78 -0.1,-0.69 -0.62,-1.5 -1.76,-1.5 -0.42,0 -1.1,0.17 -1.75,0.67 -0.04,0.04 -0.07,0.1 -0.07,0.16 v 0.01 c 0.08,0.36 0.08,0.78 0.08,1.42 0,0.36 0,0.74 0,1.12 -0.01,0.77 -0.01,1.5 0,2.06 0,0.37 0.23,0.46 0.41,0.53 0.1,0.03 0.18,0.04 0.26,0.06 0.15,0.04 0.31,0.08 0.55,0.12 0.03,0.16 0.03,0.32 -0.01,0.48 -0.01,0.06 -0.04,0.12 -0.07,0.17 -0.59,-0.02 -1.2,-0.04 -2.07,-0.04 -0.26,0 -0.7,0.01 -1.08,0.02 -0.31,0.01 -0.6,0.02 -0.77,0.02 -0.04,-0.11 -0.06,-0.22 -0.06,-0.34 0,-0.11 0.02,-0.22 0.07,-0.31 l 0.23,-0.04 c 0.21,-0.04 0.38,-0.07 0.55,-0.11 0.29,-0.1 0.4,-0.25 0.42,-0.62 0.05,-0.86 0.1,-3.33 -0.02,-3.94 -0.21,-1 -0.78,-1.5 -1.69,-1.5 -0.53,0 -1.2,0.26 -1.75,0.67 -0.11,0.1 -0.17,0.25 -0.16,0.39 0,0.3 0,0.65 0,1.02 0,1.24 -0.01,2.79 0.02,3.46 0.02,0.2 0.09,0.45 0.48,0.53 0.08,0.03 0.23,0.05 0.4,0.08 0.1,0.02 0.2,0.04 0.31,0.06 0.04,0.21 0.02,0.44 -0.05,0.65 -0.17,0 -0.38,-0.01 -0.62,-0.02 -0.36,-0.02 -0.82,-0.04 -1.34,-0.04 -0.61,0 -1.03,0.02 -1.37,0.04 -0.23,0.01 -0.43,0.02 -0.63,0.02" />
      <path
         style="fill:#21313c"
         inkscape:connector-curvature="0"
         id="path3897"
         d="m 35.36,13.42 c -0.32,-0.01 -0.64,0.08 -0.92,0.26 -0.67,0.4 -1.01,1.2 -1.01,2.39 0,2.21 1.12,3.76 2.73,3.76 0.43,0.01 0.85,-0.14 1.18,-0.42 0.49,-0.39 0.76,-1.21 0.76,-2.34 0,-2.18 -1.1,-3.65 -2.74,-3.65 m 0.31,7.23 c -2.9,0 -3.94,-2.11 -3.94,-4.07 0,-1.38 0.57,-2.45 1.69,-3.2 0.79,-0.48 1.69,-0.74 2.62,-0.76 2.22,0 3.77,1.57 3.77,3.82 0,1.54 -0.62,2.74 -1.79,3.5 -0.56,0.34 -1.54,0.71 -2.35,0.71" />
      <path
         style="fill:#21313c"
         inkscape:connector-curvature="0"
         id="path3899"
         d="m 65.17,13.42 c -0.33,-0.01 -0.65,0.08 -0.92,0.26 -0.68,0.4 -1.02,1.2 -1.02,2.39 0,2.21 1.12,3.76 2.73,3.76 0.44,0.01 0.86,-0.14 1.19,-0.42 0.49,-0.39 0.75,-1.21 0.75,-2.34 0,-2.18 -1.09,-3.65 -2.73,-3.65 m 0.31,7.23 c -2.91,0 -3.94,-2.11 -3.94,-4.07 0,-1.38 0.57,-2.45 1.69,-3.2 0.79,-0.48 1.69,-0.74 2.62,-0.76 2.22,0 3.77,1.57 3.77,3.82 0,1.54 -0.62,2.74 -1.79,3.5 -0.57,0.34 -1.54,0.71 -2.35,0.71" />
      <path
         style="fill:#21313c"
         inkscape:connector-curvature="0"
         id="path3901"
         d="m 55.3,13.35 c -0.9,0 -1.49,0.71 -1.49,1.79 0,1.08 0.5,2.37 1.92,2.37 0.25,0 0.69,-0.1 0.91,-0.34 0.33,-0.3 0.55,-0.91 0.55,-1.56 0,-1.41 -0.7,-2.26 -1.88,-2.26 m -0.12,7.49 c -0.26,0 -0.51,0.06 -0.73,0.18 -0.72,0.45 -1.06,0.9 -1.06,1.42 0,0.48 0.2,0.87 0.61,1.22 0.51,0.42 1.19,0.62 2.08,0.62 1.77,0 2.55,-0.93 2.55,-1.84 0,-0.64 -0.32,-1.07 -1,-1.31 -0.52,-0.19 -1.39,-0.29 -2.45,-0.29 m 0.12,4.4 c -1.06,0 -1.82,-0.22 -2.47,-0.71 -0.63,-0.48 -0.92,-1.19 -0.92,-1.68 0.01,-0.31 0.13,-0.62 0.35,-0.85 0.18,-0.2 0.61,-0.59 1.6,-1.25 0.03,-0.01 0.05,-0.04 0.05,-0.08 0,-0.03 -0.03,-0.07 -0.06,-0.08 -0.82,-0.3 -1.06,-0.8 -1.14,-1.07 0,-0.01 0,-0.03 0,-0.04 -0.03,-0.11 -0.05,-0.21 0.1,-0.31 0.11,-0.08 0.29,-0.19 0.49,-0.3 0.27,-0.15 0.54,-0.32 0.79,-0.5 0.02,-0.03 0.04,-0.07 0.03,-0.11 -0.01,-0.04 -0.03,-0.07 -0.07,-0.09 -1.2,-0.39 -1.8,-1.27 -1.8,-2.6 -0.01,-0.84 0.4,-1.64 1.11,-2.13 0.48,-0.37 1.69,-0.82 2.48,-0.82 h 0.05 c 0.8,0.02 1.26,0.18 1.89,0.41 0.36,0.13 0.74,0.19 1.12,0.17 0.67,0 0.96,-0.2 1.22,-0.44 0.04,0.1 0.06,0.22 0.06,0.33 0.02,0.28 -0.06,0.55 -0.22,0.78 -0.13,0.19 -0.46,0.32 -0.75,0.32 -0.03,0 -0.06,0 -0.09,0 -0.16,-0.01 -0.31,-0.04 -0.46,-0.08 l -0.08,0.03 c -0.02,0.03 -0.01,0.07 0.01,0.12 0.01,0.01 0.01,0.02 0.01,0.03 0.06,0.24 0.1,0.48 0.11,0.73 0,1.39 -0.56,2 -1.17,2.45 -0.58,0.43 -1.28,0.7 -2.02,0.76 v 0 c -0.01,0 -0.09,0.01 -0.23,0.02 -0.09,0.01 -0.21,0.02 -0.23,0.02 h -0.02 c -0.13,0.04 -0.47,0.2 -0.47,0.5 0,0.24 0.15,0.55 0.9,0.61 l 0.48,0.03 c 0.98,0.07 2.21,0.15 2.79,0.34 0.79,0.27 1.31,1.01 1.29,1.82 0,1.25 -0.91,2.43 -2.43,3.15 -0.72,0.33 -1.51,0.51 -2.3,0.5" />
      <path
         style="fill:#21313c"
         inkscape:connector-curvature="0"
         id="path3903"
         d="m 50.73,19.89 c -0.43,-0.06 -0.74,-0.12 -1.1,-0.29 -0.08,-0.07 -0.12,-0.16 -0.14,-0.27 -0.04,-0.58 -0.04,-2.29 -0.04,-3.41 0,-0.91 -0.15,-1.71 -0.54,-2.28 -0.46,-0.64 -1.12,-1.02 -1.97,-1.02 -0.75,0 -1.75,0.51 -2.58,1.21 -0.02,0.02 -0.15,0.14 -0.15,-0.05 0.01,-0.18 0.04,-0.56 0.05,-0.8 0.02,-0.13 -0.03,-0.27 -0.12,-0.36 -0.54,0.27 -2.06,0.63 -2.63,0.69 -0.41,0.08 -0.51,0.47 -0.07,0.61 v 0 c 0.35,0.09 0.69,0.24 1,0.43 0.17,0.13 0.15,0.32 0.15,0.47 0.02,1.28 0.02,3.23 -0.04,4.29 -0.02,0.42 -0.13,0.57 -0.44,0.65 l 0.03,-0.01 c -0.24,0.06 -0.48,0.1 -0.72,0.13 -0.09,0.1 -0.09,0.65 0,0.76 0.2,0 1.18,-0.05 1.99,-0.05 1.12,0 1.7,0.05 1.99,0.05 0.11,-0.13 0.15,-0.64 0.07,-0.76 -0.26,-0.01 -0.53,-0.05 -0.79,-0.11 -0.31,-0.08 -0.38,-0.23 -0.4,-0.57 -0.04,-0.89 -0.04,-2.79 -0.04,-4.08 0,-0.36 0.09,-0.53 0.21,-0.63 0.39,-0.34 1.02,-0.57 1.58,-0.57 0.54,0 0.91,0.17 1.18,0.4 0.31,0.27 0.51,0.66 0.55,1.07 0.08,0.72 0.06,2.17 0.06,3.42 0,0.68 -0.06,0.85 -0.31,0.93 -0.12,0.05 -0.43,0.11 -0.79,0.15 -0.12,0.11 -0.08,0.64 0,0.76 0.5,0 1.08,-0.06 1.93,-0.06 1.06,0 1.73,0.06 2,0.06 0.12,-0.14 0.16,-0.63 0.08,-0.76" />
    </g>
  </g>
  <g
     id="layer 4"
     inkscape:label="Layer 4"
     inkscape:groupmode="layer"
     style="display:inline"
     transform="translate(11.163002,28.058355)">
    <g
       id="g4530"
       transform="matrix(0.4865353,0,0,0.45770743,-11.163002,-28.058355)">
      <path
         inkscape:connector-curvature="0"
         id="path3906"
         d="m 7.579,10.123 h 14.204 c 4.169,0.035 7.19,1.237 9.063,3.604 1.873,2.367 2.491,5.6 1.855,9.699 -0.247,1.873 -0.795,3.71 -1.643,5.512 -0.813,1.802 -1.943,3.427 -3.392,4.876 -1.767,1.837 -3.657,3.003 -5.671,3.498 -2.014,0.495 -4.099,0.742 -6.254,0.742 H 9.381 L 7.367,48.124 H 0 L 7.579,10.123 v 0 m 6.201,6.042 -3.18,15.9 c 0.212,0.035 0.424,0.053 0.636,0.053 0.247,0 0.495,0 0.742,0 3.392,0.035 6.219,-0.3 8.48,-1.007 2.261,-0.742 3.781,-3.321 4.558,-7.738 0.636,-3.71 0,-5.848 -1.908,-6.413 -1.873,-0.565 -4.222,-0.83 -7.049,-0.795 -0.424,0.035 -0.83,0.053 -1.219,0.053 -0.353,0 -0.724,0 -1.113,0 l 0.053,-0.053" />
      <path
         inkscape:connector-curvature="0"
         id="path3908"
         d="m 41.093,0 h 7.314 L 46.34,10.123 h 6.572 c 3.604,0.071 6.289,0.813 8.056,2.226 1.802,1.413 2.332,4.099 1.59,8.056 l -3.551,17.649 h -7.42 L 54.979,21.2 c 0.353,-1.767 0.247,-3.021 -0.318,-3.763 -0.565,-0.742 -1.784,-1.113 -3.657,-1.113 L 45.121,16.271 40.775,38.054 H 33.461 L 41.093,0 v 0" />
      <path
         inkscape:connector-curvature="0"
         id="path3910"
         d="m 70.412,10.123 h 14.204 c 4.169,0.035 7.19,1.237 9.063,3.604 1.873,2.367 2.491,5.6 1.855,9.699 -0.247,1.873 -0.795,3.71 -1.643,5.512 -0.813,1.802 -1.943,3.427 -3.392,4.876 -1.767,1.837 -3.657,3.003 -5.671,3.498 -2.014,0.495 -4.099,0.742 -6.254,0.742 h -6.36 L 70.2,48.124 h -7.367 l 7.579,-38.001 v 0 m 6.201,6.042 -3.18,15.9 c 0.212,0.035 0.424,0.053 0.636,0.053 0.247,0 0.495,0 0.742,0 3.392,0.035 6.219,-0.3 8.48,-1.007 2.261,-0.742 3.781,-3.321 4.558,-7.738 0.636,-3.71 0,-5.848 -1.908,-6.413 -1.873,-0.565 -4.222,-0.83 -7.049,-0.795 -0.424,0.035 -0.83,0.053 -1.219,0.053 -0.353,0 -0.724,0 -1.113,0 l 0.053,-0.053" />
    </g>
  </g>
  <g
     id="g9139"
     inkscape:label="Layer 2"
     inkscape:groupmode="layer"
     transform="matrix(0.9939405,0,0,0.9939405,11.552374,26.613279)"
     style="display:inline;enable-background:new">
    <g
       id="g4564"
       transform="matrix(0.28496743,0,0,0.32106265,70.516294,74.806955)">
      <g
         style="opacity:0.78325124"
         id="g6035"
         transform="translate(3.6896803e-7,0.4883067)">
        <path
           inkscape:connector-curvature="0"
           style="fill:#000000;fill-opacity:1;filter:url(#filter6017-3)"
           id="path5987"
           d="m 54.1,12.988307 -41.2,42.2 c -15.6,15.6 10.1,14.3 19.4,20.2 4.3,2.8 -13.8,6.4 -10.1,10.1 3.6,3.7 21.7,7.1 25.3,10.7 3.6,3.699996 -7.3,7.600003 -3.7,11.300003 3.5,3.7 11.9,0.2 13.4,8.6 1.1,6.2 15.4,3.1 21.8,-2.2 4,-3.4 -6.9,-3.4 -3.3,-7.1 9,-9.100003 17,-4.1 20.3,-12.500003 1.8,-4.5 -13.6,-7.7 -9.5,-10.6 9.8,-6.9 45.8,-10.4 29.2,-27 l -42.7,-43.7 c -5.3,-5.0000003 -14,-5.0000003 -18.9,0 z m 47.3,81.3 c 0,2.1 16.3,3.3 15.4,-0.5 -1.3,-6.4 -13.6,-5.9 -15.4,0.5 z M 31.9,105.38831 c 3.7,3.2 9.3,-0.7 11.1,-5.2 -3.6,-4.700003 -16.9,0.3 -11.1,5.2 z m 67.5,-6.700003 c -4.6,4.200003 0.8,8.600003 5.3,5.700003 1.2,-0.8 -0.1,-4.700007 -5.3,-5.700003 z" />
        <path
           inkscape:connector-curvature="0"
           style="opacity:0.57635468;fill:#000000;fill-opacity:1;filter:url(#filter6031-0)"
           id="path6021"
           d="m 54.1,13.964921 -41.2,42.2 c -15.6,15.6 10.1,14.3 19.4,20.2 4.3,2.8 -13.8,6.4 -10.1,10.1 3.6,3.7 21.7,7.1 25.3,10.7 3.6,3.699999 -7.3,7.600009 -3.7,11.300009 3.5,3.7 11.9,0.2 13.4,8.6 1.1,6.2 15.4,3.1 21.8,-2.2 4,-3.4 -6.9,-3.4 -3.3,-7.1 9,-9.100009 17,-4.1 20.3,-12.500009 1.8,-4.5 -13.6,-7.7 -9.5,-10.6 9.8,-6.9 45.8,-10.4 29.2,-27 l -42.7,-43.7 c -5.3,-5.0000009 -14,-5.0000009 -18.9,0 z m 47.3,81.3 c 0,2.1 16.3,3.3 15.4,-0.5 -1.3,-6.4 -13.6,-5.9 -15.4,0.5 z M 31.9,106.36493 c 3.7,3.2 9.3,-0.7 11.1,-5.2 -3.6,-4.700009 -16.9,0.3 -11.1,5.2 z m 67.5,-6.700009 c -4.6,4.200009 0.8,8.600009 5.3,5.700009 1.2,-0.8 -0.1,-4.70001 -5.3,-5.700009 z" />
      </g>
      <path
         inkscape:connector-curvature="0"
         style="fill:#000000;fill-opacity:1"
         id="use7631"
         d="M 54.1,12.5 12.9,54.7 C -2.7,70.3 23,69 32.3,74.9 36.6,77.7 18.5,81.3 22.2,85 c 3.6,3.7 21.7,7.1 25.3,10.7 3.6,3.7 -7.3,7.6 -3.7,11.3 3.5,3.7 11.9,0.2 13.4,8.6 1.1,6.2 15.4,3.1 21.8,-2.2 4,-3.4 -6.9,-3.4 -3.3,-7.1 9,-9.1 17,-4.1 20.3,-12.5 1.8,-4.5 -13.6,-7.7 -9.5,-10.6 9.8,-6.9 45.8,-10.4 29.2,-27 L 73,12.5 c -5.3,-5 -14,-5 -18.9,0 z m 47.3,81.3 c 0,2.1 16.3,3.3 15.4,-0.5 -1.3,-6.4 -13.6,-5.9 -15.4,0.5 z m -69.5,11.1 c 3.7,3.2 9.3,-0.7 11.1,-5.2 -3.6,-4.7 -16.9,0.3 -11.1,5.2 z m 67.5,-6.7 c -4.6,4.2 0.8,8.6 5.3,5.7 1.2,-0.8 -0.1,-4.7 -5.3,-5.7 z" />
      <path
         inkscape:connector-curvature="0"
         style="fill:none"
         id="use7639"
         d="M 54.1,12.5 12.9,54.7 C -2.7,70.3 23,69 32.3,74.9 36.6,77.7 18.5,81.3 22.2,85 c 3.6,3.7 21.7,7.1 25.3,10.7 3.6,3.7 -7.3,7.6 -3.7,11.3 3.5,3.7 11.9,0.2 13.4,8.6 1.1,6.2 15.4,3.1 21.8,-2.2 4,-3.4 -6.9,-3.4 -3.3,-7.1 9,-9.1 17,-4.1 20.3,-12.5 1.8,-4.5 -13.6,-7.7 -9.5,-10.6 9.8,-6.9 45.8,-10.4 29.2,-27 L 73,12.5 c -5.3,-5 -14,-5 -18.9,0 z m 47.3,81.3 c 0,2.1 16.3,3.3 15.4,-0.5 -1.3,-6.4 -13.6,-5.9 -15.4,0.5 z m -69.5,11.1 c 3.7,3.2 9.3,-0.7 11.1,-5.2 -3.6,-4.7 -16.9,0.3 -11.1,5.2 z m 67.5,-6.7 c -4.6,4.2 0.8,8.6 5.3,5.7 1.2,-0.8 -0.1,-4.7 -5.3,-5.7 z" />
      <use
         xlink:href="#outline1"
         height="300"
         width="400"
         y="0"
         x="0"
         style="opacity:0.66995072;fill:url(#linearGradient9175-3);filter:url(#filter8490-0)"
         id="use7641"
         clip-path="url(#clipPath9086-1)"
         transform="matrix(0.9905442,0,0,0.9905442,0.6051535,0.604136)" />
      <path
         inkscape:connector-curvature="0"
         style="opacity:0.50526315;fill:url(#shinySpecular-0);stroke:none"
         id="path7643"
         d="M 16.565217,57.039374 C 5.3632748,68.140398 25.042362,65.011927 40.180121,70.966113 L 71.464824,15.965587 c -4.743164,-4.844083 -10.798268,-4.44041 -15.137759,0 z" />
      <path
         inkscape:connector-curvature="0"
         style="fill:url(#IcecapTip-0)"
         id="icecap"
         d="m 70.5,15.5 16.3,16.6 c 1.5,1.5 1.5,4.6 0.6,5.5 L 79.3,31 77.7,40.7 71,37.1 60.1,44 56.5,29.5 50.7,42.1 36.2,42 c -2.8,0 -2.4,-2.9 0.5,-5.8 5.7,-6.3 16.8,-17 20.3,-20.7 3.6,-3.7 9.9,-3.6 13.5,0 z" />
      <path
         inkscape:connector-curvature="0"
         style="opacity:0.21674876;fill:url(#radialGradient9177-1);fill-opacity:1;fill-rule:evenodd;stroke:none"
         id="path8566"
         transform="matrix(0.5296484,0,0,0.5296484,-11.722258,-13.864159)"
         d="m 113,203.5 c 0,0 3.34046,5.10071 3,7.5 -0.66817,4.70868 -10.80945,7.05842 -8.5625,11.25 2.21991,4.14114 10.22139,1.79405 16.9375,6.125 6.6875,4.3125 4.88949,13.10149 9.75,15.3125 9.47925,4.31205 34.375,-7.4375 33.125,-7.1875 -1.25,0.25 -24.57014,5.09545 -29.82014,0.84545 -5.98592,-4.84575 -7.70217,-8.23028 -12.11736,-11.09545 -4.13751,-2.68498 -9.94967,-3.78036 -11.30246,-5.97865 -1.35279,-2.19829 2.7092,-5.03469 2.98996,-9.27135 0.16862,-2.54442 -4,-7.5 -4,-7.5 z" />
      <path
         inkscape:connector-curvature="0"
         style="opacity:0.27586209;fill:url(#radialGradient8574-0);fill-opacity:1;fill-rule:evenodd;stroke:none;filter:url(#filter8732-3)"
         id="path8718"
         transform="matrix(0.5296484,0,0,0.5296484,-11.722258,-13.864159)"
         d="m 113,203.5 c 0,0 3.34046,5.10071 3,7.5 -0.66817,4.70868 -10.80945,7.05842 -8.5625,11.25 2.21991,4.14114 10.22139,1.79405 16.9375,6.125 6.6875,4.3125 4.88949,13.10149 9.75,15.3125 9.47925,4.31205 34.375,-7.4375 33.125,-7.1875 -41.33959,0.15736 -33.62485,-10.4946 -49.5625,-17.5 -2.30305,-1.0123 -0.96826,-3.76334 -0.6875,-8 0.16862,-2.54442 -4,-7.5 -4,-7.5 z" />
      <path
         inkscape:connector-curvature="0"
         style="opacity:0.45320195;fill:url(#radialGradient8744-9);fill-opacity:1;fill-rule:evenodd;stroke:none"
         id="path8736"
         transform="matrix(0.5296484,0,0,0.5296484,-11.722258,-13.864159)"
         d="M 183.25,181.75 C 220.35371,168.09541 232.27363,166.21942 244.5,154 230.33931,165.95366 200.40153,172.3658 176,183 Z" />
      <path
         inkscape:connector-curvature="0"
         style="opacity:0.51231528;fill:url(#radialGradient8768-6);fill-opacity:1;fill-rule:evenodd;stroke:none;filter:url(#filter8764-9)"
         id="path8746"
         transform="matrix(0.5296484,0,0,0.5296484,-11.722258,-14.791044)"
         d="m 183.25,181.75 c 61.10371,-21.65459 50.77363,-21.53058 61.25,-27.75 -19.42769,7.43666 -55.73446,8.22981 -68.5,29 z" />
      <path
         inkscape:connector-curvature="0"
         style="display:inline;overflow:visible;visibility:visible;opacity:0.2857143;fill:url(#linearGradient8912-9);fill-opacity:1;fill-rule:nonzero;stroke:none;stroke-width:1;marker:none;enable-background:accumulate"
         id="path8864"
         transform="matrix(0.5296484,0,0,0.5296484,-12.384318,-14.791044)"
         d="m 237.875,199.0625 a 7.9375,2.4375 0 1 1 -15.875,0 7.9375,2.4375 0 1 1 15.875,0 z" />
      <path
         inkscape:connector-curvature="0"
         style="display:inline;overflow:visible;visibility:visible;opacity:0.62068936;fill:url(#linearGradient8910-3);fill-opacity:1;fill-rule:nonzero;stroke:none;stroke-width:1;marker:none;filter:url(#filter8906-3);enable-background:accumulate"
         id="path8874"
         transform="matrix(0.7131486,0,0,1.1407811,-54.577902,-134.95502)"
         d="m 237.875,199.0625 a 7.9375,2.4375 0 1 1 -15.875,0 7.9375,2.4375 0 1 1 15.875,0 z" />
      <path
         inkscape:connector-curvature="0"
         style="fill:url(#radialGradient8922-9);fill-opacity:1;fill-rule:evenodd;stroke:none;filter:url(#filter8980-1)"
         id="path8914"
         transform="matrix(0.5296484,0,0,0.5296484,-11.722258,-14.238677)"
         d="m 214.125,203.75 c 3.76948,3.48424 24.75576,5.27219 28.1875,-1 -6.73663,4.7839 -21.71677,3.10264 -28.1875,1 z" />
      <path
         inkscape:connector-curvature="0"
         style="display:inline;overflow:visible;visibility:visible;opacity:0.2857143;fill:url(#linearGradient8990-4);fill-opacity:1;fill-rule:nonzero;stroke:none;stroke-width:1;marker:none;enable-background:accumulate"
         id="path8984"
         transform="matrix(0.2042516,-0.1035605,0.2395168,0.4723972,5.7547955,30.286555)"
         d="m 236.44594,199.0625 a 6.5084434,3.0820823 0 1 1 -13.01688,0 6.5084434,3.0820823 0 1 1 13.01688,0 z" />
      <path
         inkscape:connector-curvature="0"
         style="display:inline;overflow:visible;visibility:visible;opacity:0.62068936;fill:url(#linearGradient8992-2);fill-opacity:1;fill-rule:nonzero;stroke:none;stroke-width:1;marker:none;filter:url(#filter8906-3);enable-background:accumulate"
         id="path8986"
         transform="matrix(0.2750159,-0.1394397,0.5158824,1.0174708,-65.353496,-69.300635)"
         d="m 236.99305,199.0625 a 7.0555515,2.1400476 0 1 1 -14.1111,0 7.0555515,2.1400476 0 1 1 14.1111,0 z" />
      <path
         inkscape:connector-curvature="0"
         style="fill:url(#radialGradient8994-0);fill-opacity:1;fill-rule:evenodd;stroke:none;filter:url(#filter8980-1)"
         id="path8988"
         transform="matrix(0.2042516,-0.1035605,0.2395168,0.4723972,6.2599008,30.649764)"
         d="m 217.05754,201.94027 c 3.76948,3.48424 26.97122,8.91123 25.25496,0.80973 -3.31737,5.32326 -18.78423,1.29291 -25.25496,-0.80973 z" />
      <path
         inkscape:connector-curvature="0"
         style="fill:url(#radialGradient9004-6);fill-opacity:1;fill-rule:evenodd;stroke:none"
         id="path8996"
         transform="matrix(0.5296484,0,0,0.5296484,-11.722258,-13.864159)"
         d="m 68.25,186 c 0,-0.62057 38.84622,11.83854 45.5,18.5 -5.47122,-5.33854 -33.159709,-17.61609 -37.375,-17.75 -4.215291,-0.13391 -7.625,-0.5 -8.125,-0.75 z" />
      <g
         id="g9018"
         transform="matrix(0.8790148,-0.1929959,0.2338341,0.6959295,-20.209533,36.725557)">
        <path
           inkscape:connector-curvature="0"
           style="display:inline;overflow:visible;visibility:visible;opacity:0.2857143;fill:url(#linearGradient9023-6);fill-opacity:1;fill-rule:nonzero;stroke:none;stroke-width:1;marker:none;enable-background:accumulate"
           id="path9006"
           transform="matrix(0.5296484,0,0,0.5296484,-84.4165,-4.7277245)"
           d="m 237.875,199.0625 a 7.9375,2.4375 0 1 1 -15.875,0 7.9375,2.4375 0 1 1 15.875,0 z" />
        <path
           inkscape:connector-curvature="0"
           style="display:inline;overflow:visible;visibility:visible;opacity:0.62068936;fill:url(#linearGradient9025-1);fill-opacity:1;fill-rule:nonzero;stroke:none;stroke-width:1;marker:none;filter:url(#filter8906-3);enable-background:accumulate"
           id="path9008"
           transform="matrix(0.7131486,0,0,1.1407811,-126.61008,-124.8917)"
           d="m 237.875,199.0625 a 7.9375,2.4375 0 1 1 -15.875,0 7.9375,2.4375 0 1 1 15.875,0 z" />
      </g>
      <path
         inkscape:connector-curvature="0"
         style="opacity:0.61576353;fill:url(#radialGradient9046-1);fill-opacity:1;fill-rule:evenodd;stroke:none;filter:url(#filter9068-2)"
         id="path9038"
         transform="matrix(0.5296484,0,0,0.5296484,-11.622949,-14.42691)"
         d="m 80.5,220.0625 c 0,0 2.10339,5.65078 7.875,5.9375 5.83887,0.29006 12.50324,-7.00698 13.0625,-9.625 -1,2.25 -6.590334,9.03328 -13.8125,8.9375 -4.099862,-0.0544 -7.125,-5.25 -7.125,-5.25 z" />
      <path
         inkscape:connector-curvature="0"
         style="fill:none;stroke:url(#radialGradient11553-3);stroke-width:0.48830673;stroke-miterlimit:4;stroke-dasharray:none;stroke-opacity:1;filter:url(#filter9298-4)"
         id="87235"
         d="m 63.40625,10.21875 c -3.098181,0 -6.134601,1.122042 -8.28125,3.3125 l -41.1875,42.1875 c -3.76562,3.76562 -4.6702413,6.23069 -4.4375,7.625 0.1163706,0.697155 0.4585994,1.303027 1.1875,1.9375 0.728901,0.634473 1.831495,1.256389 3.15625,1.8125 2.649511,1.112222 6.217961,2.008085 9.71875,2.96875 3.500789,0.960665 6.929812,1.974626 9.53125,3.625 0.396623,0.258266 0.769088,0.576468 1.03125,1.03125 0.262162,0.454782 0.354216,1.056088 0.25,1.5625 -0.208431,1.012824 -0.83202,1.546985 -1.46875,2.03125 -1.27346,0.96853 -3.023257,1.773229 -4.78125,2.625 -1.757993,0.851771 -3.524925,1.723242 -4.40625,2.4375 -0.440663,0.357129 -0.600112,0.678133 -0.59375,0.65625 0.0064,-0.02188 -0.116851,-0.273101 0.09375,-0.0625 0.551764,0.56709 2.274075,1.538165 4.46875,2.40625 2.194675,0.868085 4.88065,1.745624 7.59375,2.625 2.7131,0.879376 5.4575,1.749959 7.78125,2.65625 2.32375,0.906291 4.217694,1.748944 5.46875,3 0.622681,0.639978 1.062632,1.435956 1.15625,2.25 0.09362,0.814044 -0.126809,1.578032 -0.4375,2.21875 -0.621382,1.28144 -1.620313,2.26719 -2.53125,3.21875 -0.910938,0.95156 -1.736226,1.86034 -2.03125,2.46875 -0.147512,0.3042 -0.170347,0.50242 -0.15625,0.625 0.0141,0.12258 0.03518,0.24623 0.3125,0.53125 A 1.4566768,1.4566768 0 0 1 44.875,106 c 1.193594,1.2618 3.787002,1.43924 6.71875,2.125 1.465874,0.34288 2.998909,0.86196 4.3125,2 1.313591,1.13804 2.299435,2.87059 2.71875,5.21875 0.176459,0.99459 0.702722,1.4788 1.96875,1.875 1.266028,0.3962 3.194353,0.46554 5.3125,0.15625 4.236295,-0.61859 9.260035,-2.69532 12.15625,-5.09375 0.17999,-0.15299 0.129956,-0.11255 0.1875,-0.1875 -0.194805,-0.13939 -0.651644,-0.43652 -1.40625,-0.8125 -0.891527,-0.4442 -1.944708,-0.85956 -2.75,-1.875 -0.402646,-0.50772 -0.679877,-1.30934 -0.5625,-2.09375 0.117377,-0.78441 0.546832,-1.43702 1.125,-2.03125 4.745751,-4.79848 9.421937,-5.944136 12.9375,-6.875 1.757782,-0.465432 3.229292,-0.891233 4.34375,-1.59375 1.114458,-0.702517 1.98508,-1.663728 2.71875,-3.53125 0.08087,-0.202174 0.07855,-0.260846 -0.03125,-0.5 C 94.515197,92.542096 94.220541,92.159521 93.75,91.75 92.808918,90.930959 91.239577,90.050804 89.6875,89.1875 88.135423,88.324196 86.627034,87.519262 85.53125,86.5 84.983358,85.990369 84.409233,85.348367 84.34375,84.375 84.27827,83.401633 84.916318,82.523367 85.65625,82 88.401968,80.06679 92.552528,78.595094 97.0625,77.03125 101.57247,75.467406 106.42363,73.849125 110.375,72 c 3.95137,-1.849125 6.85729,-3.978669 7.78125,-6.125 0.46198,-1.073165 0.54663,-2.158606 0.0625,-3.5625 -0.48413,-1.403894 -1.58958,-3.120831 -3.5625,-5.09375 L 72,13.5625 c -0.01071,-0.0101 -0.02051,-0.02119 -0.03125,-0.03125 -2.357722,-2.207738 -5.478371,-3.3125 -8.5625,-3.3125 z m 45.9375,80 c -2.63522,0.09513 -5.05952,1.301393 -6.09375,3.1875 0.29381,0.110524 0.55838,0.234969 1.03125,0.34375 1.37562,0.316455 3.29543,0.520736 5.1875,0.5625 1.89207,0.04176 3.78415,-0.117472 4.9375,-0.4375 0.50487,-0.14009 0.77236,-0.281778 0.90625,-0.375 -0.2558,-1.091098 -0.86487,-1.862126 -1.90625,-2.4375 -1.07862,-0.595951 -2.55669,-0.898111 -4.0625,-0.84375 z m -70.5,9.0625 c -2.089872,-0.145348 -4.716548,0.686551 -6,1.71875 -0.641726,0.5161 -0.913269,0.99441 -0.9375,1.3125 -0.02423,0.31809 0.07726,0.74199 0.9375,1.46875 a 1.4566768,1.4566768 0 0 1 0,0.0312 c 1.352809,1.17 2.882256,1.04802 4.625,0.0937 1.460951,-0.79997 2.757201,-2.30075 3.625,-3.875 -0.585032,-0.377341 -1.284532,-0.682853 -2.25,-0.75 z m 61,0.625 c -0.447303,0.5686 -0.690902,1.09797 -0.71875,1.46875 -0.03844,0.51176 0.106611,0.90723 0.5,1.28125 0.73729,0.70099 2.33912,1.00278 3.96875,0.125 -0.0322,-0.1891 -0.0933,-0.47591 -0.34375,-0.84375 -0.4999,-0.73414 -1.6686,-1.5251 -3.40625,-2.03125 z" />
      <path
         inkscape:connector-curvature="0"
         style="opacity:0.32512315;fill:url(#linearGradient5905-4);fill-opacity:1;fill-rule:evenodd;stroke:none;filter:url(#filter5983-8)"
         id="path5897"
         transform="matrix(0.4883067,0,0,0.4883067,-5.8104012,-7.7042521)"
         d="m 95.5,172 c -5.090606,1.50191 -21.592018,7.73713 -19.25,12.5 2.243595,4.56272 40.61138,6.40132 46.5,20 2.5679,5.93009 -5.89238,10.40326 -3.75,16.5 1.64973,4.69477 14.41196,16.49084 22.48603,22.06781 6.33298,4.37435 14.65096,-3.52244 11.26397,-10.06781 -5.39589,-10.42759 18.44266,-23.19912 29.25,-29 6.30524,-3.38436 -13,-20 -13,-20 0,0 -73.5,-12 -73.5,-12 z" />
      <path
         inkscape:connector-curvature="0"
         style="fill:url(#linearGradient5801-2);fill-opacity:1;fill-rule:evenodd;stroke:none"
         id="path5783"
         d="m 41.742167,78.533037 c 2.231933,1.639226 6.636757,0.650538 9.282124,1.841759 6.349518,2.859218 14.154941,6.045427 12.718568,0.404555 0,0 -1.615771,1.342042 -1.615771,1.342042 0,0 -0.03153,-2.557545 -0.03153,-2.557545 0,0 -3.751977,0.916294 -3.751977,0.916294 0,0 -2.906173,-2.332759 -4.238526,-3.101995 -0.27829,-0.160669 -1.707695,1.292815 -1.707695,1.292815 0,0 -0.25697,-1.543804 -0.25697,-1.543804 -1.857372,-0.197638 -3.696159,-0.284805 -5.31515,-0.271821 -3.880942,0.03112 -6.499059,0.637741 -5.083074,1.6777 z" />
      <path
         inkscape:connector-curvature="0"
         style="opacity:0.47783251;fill:url(#radialGradient5811-3);fill-opacity:1;fill-rule:evenodd;stroke:none;filter:url(#filter5845-5)"
         id="path5803"
         transform="matrix(0.4883067,0,0,0.4883067,-5.8104012,-7.7042521)"
         d="m 182.75,187.25 c -1.75981,6.4783 21.62776,15.27989 19.875,19.75 -3.85895,9.84158 -24.97596,3.13755 -41.125,23.75 -2.31318,2.95251 3.25,13.5 2.5,12.25 -0.75,-1.25 -6.4649,-9.96285 -5,-14.25 4.59417,-13.44525 49.0128,-18.45749 40.875,-24.875 -4.67988,-3.69058 -21.50546,-13.88721 -17.125,-16.625 z" />
      <path
         inkscape:connector-curvature="0"
         style="display:inline;overflow:visible;visibility:visible;opacity:0.58620689;fill:#ffffff;fill-opacity:1;fill-rule:nonzero;stroke:none;stroke-width:1;marker:none;enable-background:accumulate"
         id="path6041"
         transform="matrix(0.4883067,0,0,0.4883067,-6.3597463,-8.0094438)"
         d="m 236.5,201.1875 a 2.5625,1.0625 0 1 1 -5.125,0 2.5625,1.0625 0 1 1 5.125,0 z" />
      <path
         inkscape:connector-curvature="0"
         style="display:inline;overflow:visible;visibility:visible;opacity:0.58620689;fill:#ffffff;fill-opacity:1;fill-rule:nonzero;stroke:none;stroke-width:1;marker:none;enable-background:accumulate"
         id="path6043"
         transform="matrix(0.3096579,0,0,0.4883067,27.528443,1.5735759)"
         d="m 236.5,201.1875 a 2.5625,1.0625 0 1 1 -5.125,0 2.5625,1.0625 0 1 1 5.125,0 z" />
      <path
         inkscape:connector-curvature="0"
         style="display:inline;overflow:visible;visibility:visible;opacity:0.58620689;fill:#ffffff;fill-opacity:1;fill-rule:nonzero;stroke:none;stroke-width:1;marker:none;enable-background:accumulate"
         id="path6045"
         transform="matrix(0.5478563,0,0,0.4883067,-92.102233,1.115795)"
         d="m 236.5,201.1875 a 2.5625,1.0625 0 1 1 -5.125,0 2.5625,1.0625 0 1 1 5.125,0 z" />
      <path
         inkscape:connector-curvature="0"
         style="display:inline;overflow:visible;visibility:visible;opacity:0.25123153;fill:url(#linearGradient5822-7);fill-opacity:1;fill-rule:nonzero;stroke:none;stroke-width:2.04789329;marker:none;enable-background:accumulate"
         id="path5049"
         d="m 36.672282,76.528654 c -7.152988,4.424107 -18.274031,6.034229 -6.103834,8.972635 -1.449712,-3.2281 3.138581,-2.872021 6.103834,-8.972635 z" />
      <path
         inkscape:connector-curvature="0"
         style="color:#000000;display:inline;overflow:visible;visibility:visible;opacity:0.36315792;fill:url(#linearGradient1539);fill-opacity:1;fill-rule:nonzero;stroke:none;stroke-width:2;marker:none;filter:url(#filter10997-7-2);enable-background:accumulate"
         id="path10207"
         transform="matrix(0.48830674,0,0,0.48830674,57.750397,32.997477)"
         d="m 8.8342799,171.64721 c 0,0 22.5917801,-2.12795 27.8180201,-8.64645 3.05755,-3.81358 -12.15146,-8.2638 -8.86827,-12 12.35008,-14.0541 22.73076,-13.46729 37.05025,-19.35355 14.31949,-5.88626 9.03544,-8.76906 4.40381,-11.35355 -7.9325,-4.4264 -25.58722,-9.14237 -19.74696,-19.64645 5.87688,-10.569936 57.34315,-25.249996 57.34315,-25.249996 15.59619,-5.32843 13.63909,-14.96447 6,-23 l -46,-45.7499997 c 0,0 2.28296,43.3886497 -7,61.9999997 -11.4715,22.99914 -72.54408,48.661766 -47,51.499996 9,1 13.32065,4.0705 17,11 7.57631,14.26883 -21.0000001,40.5 -21.0000001,40.5 z" />
    </g>
  </g>
  <g
     id="g5650"
     inkscape:label="Layer 3"
     inkscape:groupmode="layer"
     style="display:inline;enable-background:new"
     transform="translate(-1.5120245,-4.0682086)">
    <g
       id="g6229"
       transform="matrix(0.35,0,0,0.35,10.10173,79.70619)">
      <g
         id="g5620">
        <g
           id="g5618">
          <path
             id="path5584"
             d="m 107.2,63 c 0,0.6 -0.1,1.2 -0.1,1.9 l 2.5,-4.5 -0.3,-1.5 2.5,-0.4 0.9,6.3 1.1,-3.9 c 0.1,-0.4 0.1,-0.7 0.1,-1 0,-0.3 0,-0.6 -0.1,-1 l 2.6,-0.5 c 0.1,0.5 0.2,1 0.1,1.5 0,0.6 -0.2,1.3 -0.6,2.4 l -2.1,5.7 h -3.1 L 110,63.8 107.6,68 h -3 c 0.1,-3.9 0,-6.4 -0.3,-9 l 2.6,-0.4 c 0.3,1.3 0.4,2.8 0.3,4.4 z"
             inkscape:connector-curvature="0"
             style="fill:#0769ad" />
          <path
             id="path5586"
             d="m 123.4,60.8 c -1.2,0.6 -1.7,0.9 -2.8,1.6 l -1.2,5.5 h -2.7 l 1.9,-9.1 2.4,-0.4 -0.1,1.3 c 0.9,-0.5 1.7,-0.9 2.5,-1.3 z"
             inkscape:connector-curvature="0"
             style="fill:#0769ad" />
          <path
             id="path5588"
             d="m 125,58.8 2.8,-0.4 -2,9.5 h -2.7 z m 0.9,-4.1 2.8,-0.4 -0.6,2.9 -2.8,0.4 z"
             inkscape:connector-curvature="0"
             style="fill:#0769ad" />
          <path
             id="path5590"
             d="m 132.8,60.7 -1,4.6 c 0,0.1 0,0.2 0,0.2 0,0.1 0.1,0.2 0.3,0.2 0.5,0 1,-0.2 1.5,-0.4 l 0.5,1.9 c -0.8,0.4 -1.9,0.8 -3,0.8 -1.4,0 -2.1,-0.7 -2,-1.8 0,-0.1 0,-0.3 0.1,-0.4 l 1.1,-5.2 h -1.4 l 0.5,-2.2 h 1.4 l 0.5,-2.2 2.8,-0.4 -0.5,2.6 h 2.2 l -0.6,2.2 h -2.4 z"
             inkscape:connector-curvature="0"
             style="fill:#0769ad" />
          <path
             id="path5592"
             d="m 136,61.9 c 0.5,-2.1 1.5,-3.5 4.4,-3.5 1.8,0 3.1,0.8 3,2.3 -0.1,1.8 -1,2.7 -3.3,3.3 -1.1,0.3 -1.2,0.3 -2,0.6 l -0.1,0.6 c -0.1,0.3 0,0.7 0.5,0.7 1,0 2.4,-0.5 3.7,-1 l 0.4,1.9 c -1.2,0.7 -3,1.3 -4.6,1.3 -1.9,0 -2.7,-0.8 -2.7,-2.4 0,-0.3 0.1,-0.7 0.2,-1.1 z m 4.9,-0.9 c 0,-0.3 -0.3,-0.5 -0.8,-0.5 -1,0 -1.3,0.6 -1.4,1.3 l -0.1,0.7 c 0.5,-0.1 0.7,-0.2 1.2,-0.3 0.7,-0.3 1.1,-0.6 1.1,-1.2 z"
             inkscape:connector-curvature="0"
             style="fill:#0769ad" />
          <path
             id="path5594"
             d="m 150.4,54.8 2.8,-0.4 -2.8,13.5 h -2.7 z"
             inkscape:connector-curvature="0"
             style="fill:#0769ad" />
          <path
             id="path5596"
             d="m 153.5,61.9 c 0.5,-2.1 1.5,-3.5 4.4,-3.5 1.8,0 3.1,0.8 3,2.3 -0.1,1.8 -1,2.7 -3.3,3.3 -1.1,0.3 -1.2,0.3 -2,0.6 l -0.1,0.6 c -0.1,0.3 0,0.7 0.5,0.7 1,0 2.4,-0.5 3.7,-1 l 0.4,1.9 c -1.2,0.7 -3,1.3 -4.6,1.3 -1.9,0 -2.7,-0.8 -2.7,-2.4 0,-0.3 0.1,-0.7 0.2,-1.1 z m 4.9,-0.9 c 0,-0.3 -0.3,-0.5 -0.8,-0.5 -1,0 -1.3,0.6 -1.4,1.3 l -0.1,0.7 c 0.5,-0.1 0.7,-0.2 1.2,-0.3 0.7,-0.3 1.1,-0.6 1.1,-1.2 z"
             inkscape:connector-curvature="0"
             style="fill:#0769ad" />
          <path
             id="path5598"
             d="m 161.2,67.5 0.6,-2 c 0.7,0.2 1.5,0.5 2.5,0.5 0.9,0 1,-0.3 1.1,-0.7 0.1,-0.4 -0.2,-0.6 -1.2,-1.2 -1.9,-1 -2,-1.7 -1.7,-3.1 0.4,-2 1,-2.5 3.6,-2.5 0.9,0 2,0.2 2.8,0.4 l -0.5,2 c -0.7,-0.2 -1.7,-0.3 -2.3,-0.3 -0.8,0 -0.9,0.1 -1,0.6 -0.1,0.4 0,0.5 0.9,1 2.1,1.1 2.4,1.5 2.1,3 -0.5,2.1 -1.1,2.9 -3.9,2.9 -1,0 -2.2,-0.3 -3,-0.6 z"
             inkscape:connector-curvature="0"
             style="fill:#0769ad" />
          <path
             id="path5600"
             d="m 168.9,67.5 0.6,-2 c 0.7,0.2 1.5,0.5 2.5,0.5 0.9,0 1,-0.3 1.1,-0.7 0.1,-0.4 -0.2,-0.6 -1.2,-1.2 -1.9,-1 -2,-1.7 -1.7,-3.1 0.4,-2 1,-2.5 3.6,-2.5 0.9,0 2,0.2 2.8,0.4 l -0.5,2 c -0.7,-0.2 -1.7,-0.3 -2.3,-0.3 -0.8,0 -0.9,0.1 -1,0.6 -0.1,0.4 0,0.5 0.9,1 2.1,1.1 2.4,1.5 2.1,3 -0.5,2.1 -1.1,2.9 -3.9,2.9 -1,0 -2.2,-0.3 -3,-0.6 z"
             inkscape:connector-curvature="0"
             style="fill:#0769ad" />
          <path
             id="path5602"
             d="m 176.3,70 1.5,-2.1 h -1 l 0.7,-3.2 h 2.7 l -0.7,3.4 -2.2,2.6 z"
             inkscape:connector-curvature="0"
             style="fill:#0769ad" />
          <path
             id="path5604"
             d="m 191,67.9 v -0.8 c -0.7,0.6 -1.7,1 -3,1 -2,0 -2.5,-1.2 -2,-3.3 l 0.5,-2.5 c 0.5,-2.2 1.1,-3.9 5,-3.9 0.3,0 0.9,0 1.1,0.1 l 0.8,-3.7 2.8,-0.4 -2.8,13.5 z m -2.5,-2.8 c -0.1,0.5 0,0.7 0.5,0.7 1,0 1.7,-0.5 2.2,-1 l 0.9,-4.1 c -0.3,-0.1 -0.7,-0.1 -1,-0.1 -1.4,0 -1.7,0.7 -1.9,1.6 z"
             inkscape:connector-curvature="0"
             style="fill:#0769ad" />
          <path
             id="path5606"
             d="m 195.8,65 c 0,-0.2 0,-0.4 0.1,-0.7 l 0.5,-2.2 c 0.5,-2.4 1.7,-3.8 5,-3.8 2.5,0 3.6,1.4 3.5,3.1 0,0.2 0,0.4 -0.1,0.7 l -0.5,2.2 c -0.5,2.2 -1.6,3.8 -5,3.8 -2.4,0 -3.6,-1.4 -3.5,-3.1 z m 6.3,-3.3 c 0,-0.7 -0.4,-1.1 -1.3,-1.1 -1,0 -1.6,0.5 -1.8,1.4 l -0.5,2.3 c 0,0.1 0,0.3 -0.1,0.4 0,0.7 0.4,1.1 1.3,1.1 1,0 1.6,-0.5 1.8,-1.4 l 0.5,-2.3 c 0.1,-0.2 0.1,-0.3 0.1,-0.4 z"
             inkscape:connector-curvature="0"
             style="fill:#0769ad" />
          <path
             id="path5608"
             d="m 221.3,61.6 c 0,-0.1 0,-0.2 0,-0.3 0,-0.2 -0.1,-0.3 -0.4,-0.3 -0.5,0 -1.7,0.5 -2.5,0.9 l -1.3,6 h -2.7 l 1.3,-6.3 c 0,-0.1 0,-0.2 0,-0.3 0,-0.2 -0.1,-0.3 -0.4,-0.3 -0.5,0 -1.7,0.5 -2.4,0.9 l -1.3,6 h -2.7 l 1.9,-9.1 2.4,-0.4 -0.1,1 c 1.5,-0.7 2.6,-1.1 3.7,-1.1 0.9,0 1.4,0.4 1.6,1.1 1.4,-0.8 2.7,-1.1 3.8,-1.1 1.2,0 1.7,0.7 1.6,1.9 0,0.3 0,0.7 -0.1,1.1 l -1.4,6.5 H 220 Z"
             inkscape:connector-curvature="0"
             style="fill:#0769ad" />
          <path
             id="path5610"
             d="m 225.1,65 c 0,-0.2 0,-0.4 0.1,-0.7 l 0.5,-2.2 c 0.5,-2.4 1.7,-3.8 5,-3.8 2.5,0 3.6,1.4 3.5,3.1 0,0.2 0,0.4 -0.1,0.7 l -0.5,2.2 c -0.5,2.2 -1.6,3.8 -5,3.8 -2.4,0 -3.6,-1.4 -3.5,-3.1 z m 6.3,-3.3 c 0,-0.7 -0.4,-1.1 -1.3,-1.1 -1,0 -1.6,0.5 -1.8,1.4 l -0.5,2.3 c 0,0.1 0,0.3 -0.1,0.4 0,0.7 0.4,1.1 1.3,1.1 1,0 1.6,-0.5 1.8,-1.4 l 0.5,-2.3 c 0.1,-0.2 0.1,-0.3 0.1,-0.4 z"
             inkscape:connector-curvature="0"
             style="fill:#0769ad" />
          <path
             id="path5612"
             d="m 241.2,60.8 c -1.2,0.6 -1.7,0.9 -2.8,1.6 l -1.2,5.5 h -2.7 l 1.9,-9.1 2.4,-0.4 -0.1,1.3 c 0.9,-0.5 1.7,-0.9 2.5,-1.3 z"
             inkscape:connector-curvature="0"
             style="fill:#0769ad" />
          <path
             id="path5614"
             d="m 241.9,61.9 c 0.5,-2.1 1.5,-3.5 4.4,-3.5 1.8,0 3.1,0.8 3,2.3 -0.1,1.8 -1,2.7 -3.3,3.3 -1.1,0.3 -1.2,0.3 -2,0.6 l -0.1,0.6 c -0.1,0.3 0,0.7 0.5,0.7 1,0 2.4,-0.5 3.7,-1 l 0.4,1.9 c -1.2,0.7 -3,1.3 -4.6,1.3 -1.9,0 -2.7,-0.8 -2.7,-2.4 0,-0.3 0.1,-0.7 0.2,-1.1 z m 4.9,-0.9 c 0,-0.3 -0.3,-0.5 -0.8,-0.5 -1,0 -1.3,0.6 -1.4,1.3 l -0.1,0.7 c 0.5,-0.1 0.7,-0.2 1.2,-0.3 0.7,-0.3 1,-0.6 1.1,-1.2 z"
             inkscape:connector-curvature="0"
             style="fill:#0769ad" />
          <path
             id="path5616"
             d="m 250.4,64.7 h 2.7 l -0.7,3.2 h -2.7 z"
             inkscape:connector-curvature="0"
             style="fill:#0769ad" />
        </g>
      </g>
      <g
         id="g5648">
        <path
           id="path5622"
           d="m 3.3,13.4 c -4.6,6.5 -4,15.1 -0.5,22 0,0.2 0.1,0.4 0.2,0.6 0,0.1 0.1,0.2 0.2,0.3 0,0.1 0.1,0.1 0.1,0.2 0.1,0.1 0.1,0.2 0.2,0.3 0.1,0.2 0.2,0.4 0.3,0.6 0.1,0.1 0.1,0.2 0.2,0.3 0.1,0.2 0.3,0.4 0.4,0.6 0.1,0.1 0.1,0.2 0.2,0.3 0.2,0.3 0.4,0.5 0.6,0.8 0,0 0,0 0,0 0,0 0.1,0.1 0.1,0.1 0.2,0.2 0.3,0.5 0.5,0.7 0.1,0.1 0.1,0.2 0.2,0.2 0.2,0.2 0.3,0.4 0.5,0.6 0.1,0.1 0.1,0.1 0.2,0.2 0.2,0.3 0.4,0.5 0.7,0.7 0,0 0,0 0,0 0,0 0,0 0,0 0.2,0.2 0.4,0.5 0.7,0.7 0.1,0.1 0.1,0.1 0.2,0.2 0.2,0.2 0.3,0.3 0.5,0.5 0.1,0.1 0.1,0.1 0.2,0.2 0.2,0.2 0.5,0.4 0.7,0.7 0,0 0,0 0,0 0,0 0.1,0.1 0.1,0.1 0.2,0.2 0.4,0.4 0.7,0.6 0.1,0.1 0.2,0.1 0.3,0.2 0.2,0.1 0.4,0.3 0.6,0.4 0.1,0.1 0.2,0.1 0.3,0.2 0.2,0.2 0.4,0.3 0.6,0.4 0.1,0.1 0.1,0.1 0.2,0.2 0,0 0,0 0.1,0 0.2,0.1 0.4,0.3 0.6,0.4 0.1,0.1 0.2,0.1 0.3,0.2 0.3,0.2 0.6,0.4 0.9,0.6 0.1,0 0.2,0.1 0.3,0.1 0.2,0.1 0.5,0.3 0.7,0.4 0.1,0.1 0.3,0.1 0.4,0.2 0.2,0.1 0.3,0.2 0.5,0.3 0,0 0.1,0 0.1,0.1 0.1,0 0.1,0.1 0.2,0.1 0.3,0.1 0.5,0.3 0.8,0.4 0.1,0 0.1,0 0.2,0.1 0.3,0.1 0.6,0.3 0.9,0.4 0.1,0 0.1,0.1 0.2,0.1 0.3,0.1 0.6,0.2 0.9,0.3 0,0 0.1,0 0.1,0 0.3,0.1 0.7,0.2 1,0.3 0.1,0 0.2,0.1 0.2,0.1 0.3,0.1 0.7,0.2 1,0.3 22,4 28.4,-13.2 28.4,-13.2 -5.4,7 -14.9,8.8 -24,6.8 -0.3,-0.1 -0.7,-0.2 -1,-0.3 -0.1,0 -0.2,0 -0.2,-0.1 -0.3,-0.1 -0.7,-0.2 -1,-0.3 0,0 -0.1,0 -0.1,-0.1 -0.3,-0.1 -0.6,-0.2 -0.9,-0.3 -0.1,0 -0.2,-0.1 -0.2,-0.1 C 22.6,43 22.3,42.8 22,42.7 21.9,42.7 21.9,42.6 21.8,42.6 21.5,42.5 21.3,42.4 21,42.2 20.9,42.2 20.9,42.1 20.8,42.1 20.6,42 20.4,41.9 20.2,41.8 20.1,41.7 19.9,41.7 19.8,41.6 19.6,41.5 19.3,41.3 19.1,41.2 19,41.1 18.9,41.1 18.9,41.1 18.6,40.9 18.3,40.7 18,40.5 17.9,40.4 17.8,40.4 17.7,40.3 17.5,40.2 17.2,40 17,39.9 16.9,39.8 16.9,39.8 16.8,39.7 16.6,39.6 16.4,39.4 16.2,39.2 16.1,39.1 16,39.1 15.9,39 15.7,38.9 15.5,38.7 15.3,38.6 15.2,38.5 15.1,38.5 15,38.4 14.8,38.2 14.5,38 14.3,37.8 c 0,0 -0.1,0 -0.1,-0.1 -0.2,-0.2 -0.5,-0.5 -0.7,-0.7 -0.1,-0.1 -0.1,-0.1 -0.2,-0.2 -0.2,-0.2 -0.4,-0.3 -0.5,-0.5 -0.1,-0.1 -0.1,-0.1 -0.2,-0.2 -0.2,-0.2 -0.4,-0.5 -0.7,-0.7 0,0 0,0 0,0 C 11.7,35.2 11.5,34.9 11.2,34.6 11.1,34.5 11.1,34.5 11,34.4 10.8,34.2 10.7,34 10.5,33.8 10.4,33.7 10.4,33.7 10.3,33.6 10,33.5 9.8,33.2 9.6,33 4.6,26.2 2.8,16.7 6.8,9"
           inkscape:connector-curvature="0"
           style="fill:#0769ad" />
        <path
           id="path5624"
           d="M 17.4,7.9 C 14.1,12.7 14.3,19 16.9,24 c 0.4,0.8 0.9,1.7 1.5,2.4 0.5,0.7 1,1.5 1.7,2.1 0.2,0.3 0.5,0.5 0.7,0.8 0.1,0.1 0.1,0.1 0.2,0.2 0.2,0.2 0.5,0.5 0.8,0.7 0,0 0,0 0,0 0,0 0,0 0,0 0.3,0.3 0.6,0.5 0.9,0.7 0.1,0.1 0.1,0.1 0.2,0.2 0.3,0.2 0.6,0.5 0.9,0.7 0,0 0,0 0,0 0.1,0.1 0.3,0.2 0.4,0.3 0.1,0 0.1,0.1 0.2,0.1 0.2,0.1 0.5,0.3 0.7,0.4 0,0 0.1,0 0.1,0.1 0.2,0.1 0.4,0.2 0.6,0.3 0.1,0 0.1,0.1 0.2,0.1 0.1,0.1 0.3,0.1 0.4,0.2 0,0 0,0 0.1,0 0.3,0.1 0.6,0.3 0.9,0.4 0.1,0 0.1,0.1 0.2,0.1 0.2,0.1 0.5,0.2 0.7,0.3 0.1,0 0.2,0.1 0.3,0.1 0.2,0.1 0.4,0.2 0.7,0.2 0.1,0 0.2,0.1 0.3,0.1 0.3,0.1 0.6,0.2 1,0.3 17,2.8 20.9,-10.3 20.9,-10.3 -3.5,5.1 -10.4,7.5 -17.7,5.6 -0.3,-0.1 -0.6,-0.2 -1,-0.3 -0.1,0 -0.2,-0.1 -0.3,-0.1 -0.2,-0.1 -0.5,-0.1 -0.7,-0.2 -0.1,0 -0.2,-0.1 -0.3,-0.1 C 31.3,29.3 31,29.2 30.8,29.1 30.7,29.1 30.7,29 30.6,29 30.3,28.9 30,28.7 29.7,28.6 29.6,28.5 29.4,28.4 29.3,28.4 29.2,28.4 29.1,28.3 29,28.3 28.8,28.2 28.6,28.1 28.4,28 c 0,0 -0.1,0 -0.1,-0.1 -0.2,-0.1 -0.5,-0.3 -0.7,-0.4 -0.1,0 -0.1,-0.1 -0.2,-0.1 C 27.3,27.3 27.1,27.2 27,27.1 26.7,26.9 26.4,26.7 26.1,26.4 26,26.3 26,26.3 25.9,26.2 22.7,23.7 20.2,20.2 19,16.3 17.7,12.2 18,7.7 20.2,4"
           inkscape:connector-curvature="0"
           style="fill:#0769ad" />
        <path
           id="path5626"
           d="m 29.3,3.8 c -1.9,2.9 -2.1,6.4 -0.8,9.6 1.4,3.4 4.3,6 7.7,7.2 0.1,0.1 0.3,0.1 0.4,0.1 0.1,0 0.1,0 0.2,0.1 0.2,0.1 0.4,0.1 0.6,0.2 9.4,1.8 11.9,-4.8 12.6,-5.8 -2.2,3.2 -6,4 -10.6,2.9 C 39,18 38.6,17.9 38.3,17.8 37.9,17.6 37.4,17.5 37,17.3 36.2,16.9 35.4,16.4 34.7,15.9 30.6,12.8 28,6.8 30.7,2"
           inkscape:connector-curvature="0"
           style="fill:#0769ad" />
        <path
           id="path5628"
           d="m 247,17.2 0.4,1.6 c 0.1,0.4 -0.2,0.8 -0.6,0.8"
           inkscape:connector-curvature="0"
           style="fill:#333333" />
        <path
           id="path5630"
           d="m 217.4,14.5 c -0.1,0.4 -0.2,1 -0.3,1.3 l -3.3,15.2 3.4,-16 z"
           inkscape:connector-curvature="0"
           style="fill:#333333" />
        <polygon
           id="polygon5632"
           points="118.2,31.1 120,24.7 "
           style="fill:#333333" />
        <path
           id="path5634"
           d="m 247.4,18.8 -0.9,-4 c -0.7,-2.9 -2.8,-4.2 -7.5,-4.2 h -19.8 c -0.5,0 -0.9,0.2 -1,0.7 l -7.5,35.6 c -0.1,0.5 -0.1,0.8 -0.1,1 0.1,0.2 0.9,0.2 1.4,0.2 h 6.9 c 0.5,0 1.3,0 1.5,-0.1 0.3,-0.1 0.4,-0.8 0.5,-1.2 l 2.4,-12.5 3,-13.9 c 0.1,-0.4 0.5,-0.8 1,-0.8 h 19.6 c 0.3,0 0.6,-0.4 0.5,-0.8"
           inkscape:connector-curvature="0"
           style="fill:#333333" />
        <path
           id="path5636"
           d="m 275.3,4.3 c -0.5,0 -8.7,0 -8.7,0 -0.5,0 -1,0.5 -1.3,0.9 L 250,27.6 c -0.3,0.4 -0.6,0.4 -0.7,-0.1 l -1.1,-4.9 c -0.1,-0.4 -0.6,-0.8 -1,-0.8 h -9.8 c -0.5,0 -0.7,0.4 -0.6,0.8 l 4.4,15.4 c 0.1,0.4 0.1,1.2 0,1.6 l -2.1,7.8 c -0.1,0.4 0.2,0.6 0.6,0.6 h 9.7 c 0.5,0 0.9,-0.1 1,-0.6 l 2.1,-7.9 c 0.1,-0.4 0.4,-1 0.7,-1.4 l 24.9,-33 c 0.3,-0.4 0.2,-0.8 -0.2,-0.8 z"
           inkscape:connector-curvature="0"
           style="fill:#333333" />
        <path
           id="path5638"
           d="m 173.1,10.6 h -8.9 c -0.5,0 -0.9,0.2 -1,0.6 l -2.9,13.7 -2.9,13.1 c -0.1,0.4 -0.5,0.4 -1,0.4 h -5.8 c -5.8,0 -5.1,-3.6 -3.9,-9.1 0,-0.1 3.7,-18.1 3.7,-18.1 0.1,-0.4 -0.2,-0.6 -0.7,-0.6 h -8.4 c -0.5,0 -0.9,0.2 -1,0.6 l -3.4,18.1 c -1.7,9.8 -1.7,18.4 9.6,18.7 0.2,0 17.9,0 17.9,0 0.5,0 0.9,-0.2 1,-0.6 l 3.9,-18.2 3.8,-18.2 c 0,0 0.2,-0.4 0,-0.4 z"
           inkscape:connector-curvature="0"
           style="fill:#333333" />
        <path
           id="path5640"
           d="m 84.9,10.6 h -9.5 c -0.5,0 -0.9,0.1 -1,0.6 l -1.7,7.4 c -0.1,0.4 0.2,0.8 0.7,0.8 h 9.1 c 0.5,0 0.9,-0.4 1,-0.9 L 85.1,11 c 0,0 0.2,-0.4 -0.2,-0.4 z"
           inkscape:connector-curvature="0"
           style="fill:#333333" />
        <path
           id="path5642"
           d="m 72.8,21.8 c -0.5,0 -0.9,0.4 -1,0.8 l -1.3,5.7 -2.9,13.1 c 0,0 -1.5,6.9 -1.7,7.4 0,0 -1.3,5 -4.3,4.8 -1.4,-0.1 -3,-0.4 -3,-0.4 v 0 c -0.9,-0.3 -0.9,0.6 -1,1.1 l -1.9,8.1 c -0.1,0.4 0.2,0.8 0.6,0.9 0,0 4.1,0.6 7,0.6 h 0.5 c 7.1,0 10.9,-4.2 13.3,-15.6 L 79.9,35 82.5,22.7 c 0.1,-0.4 -0.2,-0.9 -0.6,-0.9"
           inkscape:connector-curvature="0"
           style="fill:#333333" />
        <path
           id="path5644"
           d="m 195.5,10.5 c -16,0 -19.8,9.9 -21.9,19.6 -2.1,10 -1.9,17.9 14.6,17.9 h 0.6 c 6.6,0 14.5,0 14.5,0 0.4,0 0.9,-0.4 1,-0.9 l 1.6,-6.3 c 0.1,-0.4 -0.2,-0.6 -0.7,-0.6 h -14.9 c -5.4,0 -7.3,-1.7 -7.1,-5.4 0,-0.4 0.5,-1.5 0.9,-1.5 H 207 c 1,0 1,-0.6 1,-0.6 2.5,-10.4 2.6,-22.2 -12.5,-22.2 m 4.2,15.7 c 0,0.5 -1.6,0.4 -1.6,0.4 l -12.4,-0.1 c -0.4,0 -0.6,-0.6 -0.6,-1 0,0 0,-0.5 0.1,-0.6 1,-3.3 3.8,-5.2 8.4,-5.2 5.1,0 6.2,2.5 6.2,5.4"
           inkscape:connector-curvature="0"
           style="fill:#333333" />
        <path
           id="path5646"
           d="m 126.5,37.7 c 0,0 4.5,-10.9 5.5,-17.1 C 133.4,12.2 129.2,0 112.9,0 96.8,0 89.8,11.6 87.1,24.3 84.4,37 87.9,48.1 104,48 h 24.5 c 0.5,0 0.9,-0.4 1,-0.8 l 2.1,-7.9 c 0.1,-0.4 -0.2,-0.8 -0.6,-0.8 h -2 -2 c -0.4,0 -0.6,-0.3 -0.6,-0.6 0.1,0 0.1,-0.1 0.1,-0.2 m -8.4,-6.6 -1.8,6.3 c -0.1,0.4 -0.6,0.7 -1.1,0.7 h -9.5 c -7.2,0 -9,-5.6 -7.2,-13.9 1.8,-8.5 5.2,-13.7 12.3,-14.3 9.7,-0.7 11.7,6.1 9.3,14 z"
           inkscape:connector-curvature="0"
           style="fill:#333333" />
      </g>
    </g>
  </g>
  <g
     id="layer 5"
     inkscape:label="Layer 5"
     inkscape:groupmode="layer"
     style="display:inline"
     transform="translate(-1.5120245,-4.0682086)">
    <g
       id="g7041"
       transform="matrix(0.1,0,0,0.1,59.283531,12.658664)">
      <path
         inkscape:connector-curvature="0"
         id="path6423"
         style="fill:#231f20"
         d="m 613.85,57.23 -0.3,-0.34 0.3,0.34 c 0.07,-7 -3.57,-14.41 -7.29,-18.78 -12.55,-14.65 -35.11,-24 -66.81,-25.72 -7.16,-0.39 -26.22,-1.48 -26.22,-1.47 q -15,-0.4 -30,-0.52 c -10.1,-0.08 -22,0.2 -35.27,1 0.06,0 -15.19,1 -15.18,1 0.01,0 -4.68,0.34 -8.43,0.65 C 426,9.76 429.63,0 429.63,0 368.63,2.27 360.26,8.85 358.84,9.52 351.46,13 345,19.33 336.73,26.39 A 158.82,158.82 0 0 0 323.58,39.1 C 321.29,32.8 313.1,10.31 313.09,10.28 q -10,2.72 -19.9,5.63 c -17,4.8 -36.78,11 -53.6,16.61 0,0 -25.42,-4.73 -46.41,-1.38 -20.99,3.35 -39.37,13.68 -54.44,31.2 l -0.26,0.33 C 124.05,51.35 103.83,47.84 78.61,53.67 57.94,58.51 40.07,70.76 25.78,90.57 A 112.31,112.31 0 0 0 8.22,127.24 107.76,107.76 0 0 0 0,166.57 c 0,0 0.43,12.11 0.43,12.11 0,0 0,0.24 0,0.36 0,0.12 0,0.17 0,0.25 1.8,20.09 8.24,35.09 19,44.34 12.6,10.73 28.55,11.94 47.78,4.49 21.82,-8.45 39.68,-23 53.3,-43 0,0 1.75,-2.59 3.14,-4.61 a 37.91,37.91 0 0 0 3.92,4 c 12.31,10.44 28.34,12.2 48,6.19 a 112.78,112.78 0 0 0 10.75,-3.89 C 204.06,228.43 183,325.49 183,325.53 193.5,318.79 354.69,243.18 544,215 c 1.46,-2.77 60,-95.9 68.32,-109.06 0,-0.1 -26.74,0.62 -44.37,1.46 15.07,-7.8 22.53,-17.6 22.54,-17.56 0.01,0.04 -20.58,-10.73 -33.35,-17.52 19.68,-5.65 56.63,-15.59 56.71,-15.09 z m -0.56,-0.64 z m 0.19,0.22 -0.13,-0.15 z" />
      <path
         inkscape:connector-curvature="0"
         id="path6425"
         style="fill:#29cc82"
         d="m 89.89,153 c -5,7.07 -10.78,11.65 -17.75,14 -6.22,2.06 -11.33,1.31 -15.67,-2.38 -4.34,-3.69 -6.48,-8.67 -7,-15.64 0,-1.56 0,-3.12 0.07,-4.68 0,-0.29 0,-0.58 0,-0.88 0.66,-9.82 3.59,-18.49 8.75,-25.69 a 38.17,38.17 0 0 1 21.61,-15 c 8.41,-2.3 14.43,-0.35 18.32,5.78 l 1.44,2.26 q 17,-13.11 34.31,-25.41 L 132.14,83 C 121.37,69.77 103.62,65.44 79.76,71.31 c -15.83,3.93 -29.63,13.57 -40.83,29 v 0 c -10.89,15 -16.53,31.47 -17,48.35 0,0 0.15,5 0.25,8.14 0,1.44 0.08,2.5 0.08,2.5 1.27,15.24 6,26.56 14,33.51 8.86,7.62 20.39,8.68 34.47,3.65 a 84.14,84.14 0 0 0 41.68,-32.35 l 2,-3 Q 103,155.88 91.51,150.54 Z" />
      <path
         inkscape:connector-curvature="0"
         id="path6427"
         style="fill:#29cc82"
         d="m 243.43,79.93 a 24.43,24.43 0 0 0 -0.58,-4.43 44.5,44.5 0 0 0 -2.35,-7.58 c 1.86,-1.41 7,-5.29 7,-5.27 L 246,60.76 C 235.63,48.1 217.94,43.18 193.73,47.35 177.66,50.13 163.44,58.29 151.63,71.9 v 0 c -10.14,11.75 -16.21,24.72 -18.22,38.29 -0.27,1.79 -0.48,3.59 -0.6,5.4 0,0 -0.05,9.82 -0.05,9.82 0.73,14.09 5.11,24.73 12.93,31.48 8.64,7.4 20.23,8.89 34.58,4.89 A 83.52,83.52 0 0 0 222.94,134.51 88.58,88.58 0 0 0 242.21,92 68.6,68.6 0 0 0 243.43,79.93 Z m -32.18,19.68 a 49,49 0 0 1 -9.11,21.74 c -5.24,7 -11.59,11.37 -19.45,13.36 -6.33,1.6 -11.45,0.68 -15.69,-2.92 -4.08,-3.45 -6.21,-8.28 -6.49,-14.7 q 0.13,-2.56 0.28,-5.11 A 45.6,45.6 0 0 1 164,99.27 39.81,39.81 0 0 1 170.46,88.79 38,38 0 0 1 192.73,76.08 c 7.48,-1.48 12.89,0.13 16.63,4.42 -0.9,0.62 -5.49,3.88 -5.49,3.88 l 2.25,1.3 1,0.58 c 2.94,1.69 4.43,4.67 4.56,9.11 z" />
      <path
         inkscape:connector-curvature="0"
         id="path6429"
         style="fill:#29cc82"
         d="M 384.85,75.67 Q 387,69 389.09,62.44 396.9,39 404.93,16.17 l -4.24,0.53 c 0,0 -7.61,1 -7.63,1 -0.02,0 -11.91,2.49 -11.91,2.51 a 103,103 0 0 1 -10.93,2 l -0.68,0.06 -0.61,0.29 A 92.35,92.35 0 0 0 349.38,35.65 160,160 0 0 0 324.3,62.28 c -3.26,4.35 -6.34,8.84 -9.18,13.5 a 108,108 0 0 0 -2.89,-12.84 c -0.65,-2.28 -1.35,-4.6 -2.18,-7 l -9.73,-26.7 -2.79,0.84 q -15.69,4.57 -31.28,9.61 l 3.93,9 c 1.61,3.4 1.86,4.94 1.87,5.57 0,0 -0.19,0.75 -0.24,1 -3.33,5.77 -6.15,11 -8.46,15.49 -1,2 -1.95,3.87 -2.76,5.59 a 294.31,294.31 0 0 0 -13.74,33 c -3.95,11.86 -7.47,23.72 -10.46,35.22 q -0.6,2.29 -1.2,4.6 17.29,-8 34.75,-15.46 l 0.17,-1.85 c 0.73,-8 3.25,-16.95 7.54,-26.58 0,0 3.6,-8.13 6.45,-14.4 0.1,0.49 0.18,0.82 0.28,1.39 2.75,14.41 4.14,26.16 4.2,35.1 l -0.46,7.1 3.82,-1.23 q 14.89,-6 29.9,-11.64 c 0.16,-0.47 0.33,-0.95 0.5,-1.43 4.53,-13.19 9.3,-23.46 14.13,-30.61 8,-11.87 14.09,-19.22 18.63,-23.89 0.78,-0.8 1.52,-1.53 2.21,-2.19 l -1.11,2.56 c -1.26,3 -2.34,5.62 -3.19,7.87 0,0 -7.94,20.82 -7.92,20.87 -5.27,13.39 -9.17,24.22 -11.66,32 -0.46,1.43 -0.92,2.86 -1.37,4.31 8.54,-3.42 17.11,-6.68 25.7,-9.88 5.16,-1.92 10.32,-3.84 15.49,-5.67 0.12,-0.5 0.25,-1 0.37,-1.5 1.63,-6.77 3.55,-13.73 5.69,-20.66 q 2.77,-8.93 5.54,-17.7 z" />
      <path
         inkscape:connector-curvature="0"
         id="path6431"
         style="fill:#29cc82"
         d="m 478,41.59 q 4.67,-9.19 9.38,-18.21 h -4.26 c -9.78,0 -21.24,0.45 -34,1.33 v 0 q -16.39,1.22 -32.74,2.83 c -0.2,0.5 -0.4,1 -0.61,1.5 q -4.4,10.35 -8.77,20.87 c 0,0 17.55,-3 24.45,-4 -2.44,3.58 -5.57,8.24 -5.57,8.25 a 243.51,243.51 0 0 0 -15.46,27.39 c 0,0 -4.14,9.54 -4.13,9.56 0.01,0.02 -1.34,3.21 -2.16,5.22 -2.36,0.38 -6.52,1.09 -6.52,1.09 l -9.73,1.87 Q 383.43,111 379,122.88 l 4.54,-1.13 c 20.28,-5 33.52,-7.63 39.19,-8.57 3.48,-0.55 11.14,-1.51 22.78,-2.67 l 2.18,-0.21 q 4.89,-10.61 9.84,-21 -8,0.76 -16,1.61 l -4.26,0.52 c 1.54,-3.73 4.6,-11 4.6,-11 5.51,-12.1 9.92,-20.75 13,-25.92 a 96.5,96.5 0 0 1 6.13,-9.4 l 1.2,-1.56 c 6.36,-0.24 15.07,-0.47 15.07,-0.47 z" />
      <path
         inkscape:connector-curvature="0"
         id="path6433"
         style="fill:#29cc82"
         d="M 539.6,81 A 37.74,37.74 0 0 1 520,87 c -6.55,0.23 -11.65,-1.22 -15.6,-4.52 a 13.46,13.46 0 0 1 -5.25,-11.84 c 0.24,-1.24 0.49,-2.49 0.74,-3.73 a 26.53,26.53 0 0 1 11.88,-15.58 c 6.49,-4.06 14.22,-5.93 23.6,-5.77 8.76,0.16 14.61,2.67 17.84,7.52 l 1.18,1.78 q 18.7,-5.27 37.53,-9.69 l -1.6,-1.86 C 581,32.39 563.59,25.72 538.86,24.68 c -16.42,-0.67 -31.47,3 -44.61,11.17 v 0 c -12.79,8 -20.47,18.09 -23,29.47 0,0 -0.95,7.3 -0.95,7.3 -0.54,10.59 2.91,19.15 10.23,25.29 8.08,6.75 19.68,9.49 34.57,8.65 18.2,-1 33.65,-5.75 46,-13.85 l 2.4,-1.56 q -10.95,-5.63 -22,-11.39 z" />
      <path
         inkscape:connector-curvature="0"
         id="path6435"
         style="fill:#f9e150"
         d="m 305,154.85 q 2.24,-2.75 4.49,-5.48 -13.14,3.62 -26.22,7.5 l -2.94,0.94 -1,0.33 -0.74,0.81 c -5.63,6.33 -13.14,17.23 -22.76,33.84 -4.7,8.09 -9,16 -13,23.9 1.85,-22.39 2.76,-38 2.59,-46.59 -0.09,-4.42 -0.4,-5.81 -0.67,-6.53 l -0.81,-2.17 -2.66,1.21 q -14.9,6.78 -29.69,14 l 0.72,2.43 c 0.13,0.44 0.45,2.27 0.67,9.78 0.49,16.17 0.71,34 0.68,53 -0.07,28.34 -0.64,33.65 -0.88,34.59 l -1.29,5 4.66,-2.68 q 13.66,-8.29 27.44,-16.15 l 0.58,-0.81 c 4.68,-6.68 10.56,-16.81 17.53,-29.91 0,-0.18 15.45,-29.75 15.49,-29.63 0,-0.12 13,-24.64 13.05,-24.56 A 155.79,155.79 0 0 1 305,154.85 Z" />
      <path
         inkscape:connector-curvature="0"
         id="path6437"
         style="fill:#f9e150"
         d="m 375.42,157.71 q 4.23,-10.78 8.52,-21.39 l -4.11,0.7 c -9.41,1.61 -20.43,3.88 -32.72,6.86 v 0 l -4.43,1.12 q -13.5,3.41 -26.93,7.08 l -0.54,1.73 q -3.9,11.94 -7.73,24 c 0,0 16.21,-5.76 23,-8 l 0.34,-0.12 -0.5,1 c -2.15,4.11 -4.61,8.88 -4.61,8.88 a 324.05,324.05 0 0 0 -14,32.18 c 0,0 -3.67,11 -3.67,11 0,0 -1.18,3.7 -1.91,6 -2.25,0.78 -6.2,2.17 -6.2,2.18 0,0.01 -9.26,3.49 -9.26,3.51 q -4,13.38 -7.84,27 l 4.3,-1.91 c 19.25,-8.47 31.86,-13.38 37.26,-15.25 3.32,-1.14 10.64,-3.35 21.77,-6.4 l 2.09,-0.57 q 4.39,-12.32 8.83,-24.43 -7.68,2.07 -15.35,4.23 l -4.08,1.22 c 1.36,-4.28 4.08,-12.7 4.08,-12.69 q 4.44,-12.63 7.81,-21 c 1.49,-3.72 2.82,-6.84 4,-9.29 2.27,-5 4.16,-8.74 5.62,-11.21 l 1.11,-1.89 c 6.11,-1.26 14.49,-2.89 14.49,-2.89 0.19,-0.5 0.42,-1.07 0.66,-1.65 z" />
      <path
         inkscape:connector-curvature="0"
         id="path6439"
         style="fill:#f9e150"
         d="m 494.9,122.73 q -12.66,1.79 -25.29,3.82 l -3,0.53 -1.54,0.28 -0.81,1.05 c -11.87,15.58 -19.51,27 -22.92,33.17 l -2.34,4.16 a 267.16,267.16 0 0 0 -8.82,-36.7 l -0.63,-2 -2.85,0.83 q -15.44,4.54 -30.79,9.53 l 3.49,8 c 1.45,3 1.63,4.35 1.62,4.91 l -0.27,0.87 c -5,7.6 -8.9,14.12 -11.68,19.25 -1.8,3.26 -3.46,6.4 -5,9.42 -4,7.78 -7.21,14.75 -9.55,20.67 -4.28,10.79 -8.13,21.59 -11.47,32 l -1.33,4.19 q 17.11,-8 34.38,-15.35 l 0.23,-1.67 c 1,-7.15 3.79,-15.3 8.32,-24.08 0,0 3.8,-7.4 6.8,-13.11 0.08,0.43 0.14,0.73 0.22,1.24 2.14,12.77 3.07,23.21 2.79,31.18 q -0.35,3.17 -0.7,6.35 l 3.77,-1.26 q 14.74,-6 29.57,-11.57 4.71,-11.48 9.49,-22.75 c 4.43,-10.32 8,-17.93 10.73,-22.95 0.73,-1.35 1.4,-2.56 2,-3.53 A 333.7,333.7 0 0 1 492,126.35 Z" />
      <path
         inkscape:connector-curvature="0"
         id="path6441"
         style="fill:#f9e150"
         d="m 582,118.11 q -21.22,1.08 -42.38,2.78 v 0 q -19.92,2 -39.77,4.59 l -0.63,1.42 q -4.51,9.68 -9,19.54 c 0,0 9.55,-1.81 13.93,-2.58 -2.2,3 -4.78,6.59 -4.78,6.59 -1.66,2.53 -3.26,5.05 -4.83,7.59 -3.86,6.24 -7.43,12.48 -10.64,18.62 -2.72,5.27 -5.85,12.07 -9.3,20.28 -4.6,11.06 -4.6,11.67 -4.6,12.13 0,0.84 -0.09,1.66 -0.13,2.49 l 3.38,-0.87 C 494,204.4 510,200.76 520.6,199.15 q 9,-1.36 18.06,-2.61 5.21,-9.87 10.49,-19.53 c 0,-0.1 -32.31,4.94 -38.88,6.21 2.45,-5.56 4.74,-10.4 6.8,-14.35 3.63,-0.62 31.61,-4.26 31.62,-4.18 1.43,-2.49 2.87,-4.91 4.3,-7.39 2,-3.4 3.94,-6.83 5.93,-10.19 0,-0.06 -25.21,2.62 -32.05,3.53 l 1,-1.44 c 0,0 6.59,-9.71 6.95,-10.2 8.1,-0.92 18.12,-1.79 30,-2.48 q 5.47,-0.32 11,-0.61 5.24,-9.11 10.52,-18 z" />
      <g
         transform="matrix(0.2,0,0,0.2,245.5404,130.212)"
         id="g7018">
        <path
           inkscape:connector-curvature="0"
           id="path6988"
           style="fill:#231f20"
           d="m 613.85,57.23 -0.3,-0.34 0.3,0.34 c 0.07,-7 -3.57,-14.41 -7.29,-18.78 -12.55,-14.65 -35.11,-24 -66.81,-25.72 -7.16,-0.39 -26.22,-1.48 -26.22,-1.47 q -15,-0.4 -30,-0.52 c -10.1,-0.08 -22,0.2 -35.27,1 0.06,0 -15.19,1 -15.18,1 0.01,0 -4.68,0.34 -8.43,0.65 C 426,9.76 429.63,0 429.63,0 368.63,2.27 360.26,8.85 358.84,9.52 351.46,13 345,19.33 336.73,26.39 A 158.82,158.82 0 0 0 323.58,39.1 C 321.29,32.8 313.1,10.31 313.09,10.28 q -10,2.72 -19.9,5.63 c -17,4.8 -36.78,11 -53.6,16.61 0,0 -25.42,-4.73 -46.41,-1.38 -20.99,3.35 -39.37,13.68 -54.44,31.2 l -0.26,0.33 C 124.05,51.35 103.83,47.84 78.61,53.67 57.94,58.51 40.07,70.76 25.78,90.57 A 112.31,112.31 0 0 0 8.22,127.24 107.76,107.76 0 0 0 0,166.57 c 0,0 0.43,12.11 0.43,12.11 0,0 0,0.24 0,0.36 0,0.12 0,0.17 0,0.25 1.8,20.09 8.24,35.09 19,44.34 12.6,10.73 28.55,11.94 47.78,4.49 21.82,-8.45 39.68,-23 53.3,-43 0,0 1.75,-2.59 3.14,-4.61 a 37.91,37.91 0 0 0 3.92,4 c 12.31,10.44 28.34,12.2 48,6.19 a 112.78,112.78 0 0 0 10.75,-3.89 C 204.06,228.43 183,325.49 183,325.53 193.5,318.79 354.69,243.18 544,215 c 1.46,-2.77 60,-95.9 68.32,-109.06 0,-0.1 -26.74,0.62 -44.37,1.46 15.07,-7.8 22.53,-17.6 22.54,-17.56 0.01,0.04 -20.58,-10.73 -33.35,-17.52 19.68,-5.65 56.63,-15.59 56.71,-15.09 z m -0.56,-0.64 z m 0.19,0.22 -0.13,-0.15 z" />
        <path
           inkscape:connector-curvature="0"
           id="path6990"
           style="fill:#29cc82"
           d="m 89.89,153 c -5,7.07 -10.78,11.65 -17.75,14 -6.22,2.06 -11.33,1.31 -15.67,-2.38 -4.34,-3.69 -6.48,-8.67 -7,-15.64 0,-1.56 0,-3.12 0.07,-4.68 0,-0.29 0,-0.58 0,-0.88 0.66,-9.82 3.59,-18.49 8.75,-25.69 a 38.17,38.17 0 0 1 21.61,-15 c 8.41,-2.3 14.43,-0.35 18.32,5.78 l 1.44,2.26 q 17,-13.11 34.31,-25.41 L 132.14,83 C 121.37,69.77 103.62,65.44 79.76,71.31 c -15.83,3.93 -29.63,13.57 -40.83,29 v 0 c -10.89,15 -16.53,31.47 -17,48.35 0,0 0.15,5 0.25,8.14 0,1.44 0.08,2.5 0.08,2.5 1.27,15.24 6,26.56 14,33.51 8.86,7.62 20.39,8.68 34.47,3.65 a 84.14,84.14 0 0 0 41.68,-32.35 l 2,-3 Q 103,155.88 91.51,150.54 Z" />
        <path
           inkscape:connector-curvature="0"
           id="path6992"
           style="fill:#29cc82"
           d="m 243.43,79.93 a 24.43,24.43 0 0 0 -0.58,-4.43 44.5,44.5 0 0 0 -2.35,-7.58 c 1.86,-1.41 7,-5.29 7,-5.27 L 246,60.76 C 235.63,48.1 217.94,43.18 193.73,47.35 177.66,50.13 163.44,58.29 151.63,71.9 v 0 c -10.14,11.75 -16.21,24.72 -18.22,38.29 -0.27,1.79 -0.48,3.59 -0.6,5.4 0,0 -0.05,9.82 -0.05,9.82 0.73,14.09 5.11,24.73 12.93,31.48 8.64,7.4 20.23,8.89 34.58,4.89 A 83.52,83.52 0 0 0 222.94,134.51 88.58,88.58 0 0 0 242.21,92 68.6,68.6 0 0 0 243.43,79.93 Z m -32.18,19.68 a 49,49 0 0 1 -9.11,21.74 c -5.24,7 -11.59,11.37 -19.45,13.36 -6.33,1.6 -11.45,0.68 -15.69,-2.92 -4.08,-3.45 -6.21,-8.28 -6.49,-14.7 q 0.13,-2.56 0.28,-5.11 A 45.6,45.6 0 0 1 164,99.27 39.81,39.81 0 0 1 170.46,88.79 38,38 0 0 1 192.73,76.08 c 7.48,-1.48 12.89,0.13 16.63,4.42 -0.9,0.62 -5.49,3.88 -5.49,3.88 l 2.25,1.3 1,0.58 c 2.94,1.69 4.43,4.67 4.56,9.11 z" />
        <path
           inkscape:connector-curvature="0"
           id="path6994"
           style="fill:#29cc82"
           d="M 384.85,75.67 Q 387,69 389.09,62.44 396.9,39 404.93,16.17 l -4.24,0.53 c 0,0 -7.61,1 -7.63,1 -0.02,0 -11.91,2.49 -11.91,2.51 a 103,103 0 0 1 -10.93,2 l -0.68,0.06 -0.61,0.29 A 92.35,92.35 0 0 0 349.38,35.65 160,160 0 0 0 324.3,62.28 c -3.26,4.35 -6.34,8.84 -9.18,13.5 a 108,108 0 0 0 -2.89,-12.84 c -0.65,-2.28 -1.35,-4.6 -2.18,-7 l -9.73,-26.7 -2.79,0.84 q -15.69,4.57 -31.28,9.61 l 3.93,9 c 1.61,3.4 1.86,4.94 1.87,5.57 0,0 -0.19,0.75 -0.24,1 -3.33,5.77 -6.15,11 -8.46,15.49 -1,2 -1.95,3.87 -2.76,5.59 a 294.31,294.31 0 0 0 -13.74,33 c -3.95,11.86 -7.47,23.72 -10.46,35.22 q -0.6,2.29 -1.2,4.6 17.29,-8 34.75,-15.46 l 0.17,-1.85 c 0.73,-8 3.25,-16.95 7.54,-26.58 0,0 3.6,-8.13 6.45,-14.4 0.1,0.49 0.18,0.82 0.28,1.39 2.75,14.41 4.14,26.16 4.2,35.1 l -0.46,7.1 3.82,-1.23 q 14.89,-6 29.9,-11.64 c 0.16,-0.47 0.33,-0.95 0.5,-1.43 4.53,-13.19 9.3,-23.46 14.13,-30.61 8,-11.87 14.09,-19.22 18.63,-23.89 0.78,-0.8 1.52,-1.53 2.21,-2.19 l -1.11,2.56 c -1.26,3 -2.34,5.62 -3.19,7.87 0,0 -7.94,20.82 -7.92,20.87 -5.27,13.39 -9.17,24.22 -11.66,32 -0.46,1.43 -0.92,2.86 -1.37,4.31 8.54,-3.42 17.11,-6.68 25.7,-9.88 5.16,-1.92 10.32,-3.84 15.49,-5.67 0.12,-0.5 0.25,-1 0.37,-1.5 1.63,-6.77 3.55,-13.73 5.69,-20.66 q 2.77,-8.93 5.54,-17.7 z" />
        <path
           inkscape:connector-curvature="0"
           id="path6996"
           style="fill:#29cc82"
           d="m 478,41.59 q 4.67,-9.19 9.38,-18.21 h -4.26 c -9.78,0 -21.24,0.45 -34,1.33 v 0 q -16.39,1.22 -32.74,2.83 c -0.2,0.5 -0.4,1 -0.61,1.5 q -4.4,10.35 -8.77,20.87 c 0,0 17.55,-3 24.45,-4 -2.44,3.58 -5.57,8.24 -5.57,8.25 a 243.51,243.51 0 0 0 -15.46,27.39 c 0,0 -4.14,9.54 -4.13,9.56 0.01,0.02 -1.34,3.21 -2.16,5.22 -2.36,0.38 -6.52,1.09 -6.52,1.09 l -9.73,1.87 Q 383.43,111 379,122.88 l 4.54,-1.13 c 20.28,-5 33.52,-7.63 39.19,-8.57 3.48,-0.55 11.14,-1.51 22.78,-2.67 l 2.18,-0.21 q 4.89,-10.61 9.84,-21 -8,0.76 -16,1.61 l -4.26,0.52 c 1.54,-3.73 4.6,-11 4.6,-11 5.51,-12.1 9.92,-20.75 13,-25.92 a 96.5,96.5 0 0 1 6.13,-9.4 l 1.2,-1.56 c 6.36,-0.24 15.07,-0.47 15.07,-0.47 z" />
        <path
           inkscape:connector-curvature="0"
           id="path6998"
           style="fill:#29cc82"
           d="M 539.6,81 A 37.74,37.74 0 0 1 520,87 c -6.55,0.23 -11.65,-1.22 -15.6,-4.52 a 13.46,13.46 0 0 1 -5.25,-11.84 c 0.24,-1.24 0.49,-2.49 0.74,-3.73 a 26.53,26.53 0 0 1 11.88,-15.58 c 6.49,-4.06 14.22,-5.93 23.6,-5.77 8.76,0.16 14.61,2.67 17.84,7.52 l 1.18,1.78 q 18.7,-5.27 37.53,-9.69 l -1.6,-1.86 C 581,32.39 563.59,25.72 538.86,24.68 c -16.42,-0.67 -31.47,3 -44.61,11.17 v 0 c -12.79,8 -20.47,18.09 -23,29.47 0,0 -0.95,7.3 -0.95,7.3 -0.54,10.59 2.91,19.15 10.23,25.29 8.08,6.75 19.68,9.49 34.57,8.65 18.2,-1 33.65,-5.75 46,-13.85 l 2.4,-1.56 q -10.95,-5.63 -22,-11.39 z" />
        <path
           inkscape:connector-curvature="0"
           id="path7000"
           style="fill:#f9e150"
           d="m 305,154.85 q 2.24,-2.75 4.49,-5.48 -13.14,3.62 -26.22,7.5 l -2.94,0.94 -1,0.33 -0.74,0.81 c -5.63,6.33 -13.14,17.23 -22.76,33.84 -4.7,8.09 -9,16 -13,23.9 1.85,-22.39 2.76,-38 2.59,-46.59 -0.09,-4.42 -0.4,-5.81 -0.67,-6.53 l -0.81,-2.17 -2.66,1.21 q -14.9,6.78 -29.69,14 l 0.72,2.43 c 0.13,0.44 0.45,2.27 0.67,9.78 0.49,16.17 0.71,34 0.68,53 -0.07,28.34 -0.64,33.65 -0.88,34.59 l -1.29,5 4.66,-2.68 q 13.66,-8.29 27.44,-16.15 l 0.58,-0.81 c 4.68,-6.68 10.56,-16.81 17.53,-29.91 0,-0.18 15.45,-29.75 15.49,-29.63 0,-0.12 13,-24.64 13.05,-24.56 A 155.79,155.79 0 0 1 305,154.85 Z" />
        <path
           inkscape:connector-curvature="0"
           id="path7002"
           style="fill:#f9e150"
           d="m 375.42,157.71 q 4.23,-10.78 8.52,-21.39 l -4.11,0.7 c -9.41,1.61 -20.43,3.88 -32.72,6.86 v 0 l -4.43,1.12 q -13.5,3.41 -26.93,7.08 l -0.54,1.73 q -3.9,11.94 -7.73,24 c 0,0 16.21,-5.76 23,-8 l 0.34,-0.12 -0.5,1 c -2.15,4.11 -4.61,8.88 -4.61,8.88 a 324.05,324.05 0 0 0 -14,32.18 c 0,0 -3.67,11 -3.67,11 0,0 -1.18,3.7 -1.91,6 -2.25,0.78 -6.2,2.17 -6.2,2.18 0,0.01 -9.26,3.49 -9.26,3.51 q -4,13.38 -7.84,27 l 4.3,-1.91 c 19.25,-8.47 31.86,-13.38 37.26,-15.25 3.32,-1.14 10.64,-3.35 21.77,-6.4 l 2.09,-0.57 q 4.39,-12.32 8.83,-24.43 -7.68,2.07 -15.35,4.23 l -4.08,1.22 c 1.36,-4.28 4.08,-12.7 4.08,-12.69 q 4.44,-12.63 7.81,-21 c 1.49,-3.72 2.82,-6.84 4,-9.29 2.27,-5 4.16,-8.74 5.62,-11.21 l 1.11,-1.89 c 6.11,-1.26 14.49,-2.89 14.49,-2.89 0.19,-0.5 0.42,-1.07 0.66,-1.65 z" />
        <path
           inkscape:connector-curvature="0"
           id="path7004"
           style="fill:#f9e150"
           d="m 494.9,122.73 q -12.66,1.79 -25.29,3.82 l -3,0.53 -1.54,0.28 -0.81,1.05 c -11.87,15.58 -19.51,27 -22.92,33.17 l -2.34,4.16 a 267.16,267.16 0 0 0 -8.82,-36.7 l -0.63,-2 -2.85,0.83 q -15.44,4.54 -30.79,9.53 l 3.49,8 c 1.45,3 1.63,4.35 1.62,4.91 l -0.27,0.87 c -5,7.6 -8.9,14.12 -11.68,19.25 -1.8,3.26 -3.46,6.4 -5,9.42 -4,7.78 -7.21,14.75 -9.55,20.67 -4.28,10.79 -8.13,21.59 -11.47,32 l -1.33,4.19 q 17.11,-8 34.38,-15.35 l 0.23,-1.67 c 1,-7.15 3.79,-15.3 8.32,-24.08 0,0 3.8,-7.4 6.8,-13.11 0.08,0.43 0.14,0.73 0.22,1.24 2.14,12.77 3.07,23.21 2.79,31.18 q -0.35,3.17 -0.7,6.35 l 3.77,-1.26 q 14.74,-6 29.57,-11.57 4.71,-11.48 9.49,-22.75 c 4.43,-10.32 8,-17.93 10.73,-22.95 0.73,-1.35 1.4,-2.56 2,-3.53 A 333.7,333.7 0 0 1 492,126.35 Z" />
        <path
           inkscape:connector-curvature="0"
           id="path7006"
           style="fill:#f9e150"
           d="m 582,118.11 q -21.22,1.08 -42.38,2.78 v 0 q -19.92,2 -39.77,4.59 l -0.63,1.42 q -4.51,9.68 -9,19.54 c 0,0 9.55,-1.81 13.93,-2.58 -2.2,3 -4.78,6.59 -4.78,6.59 -1.66,2.53 -3.26,5.05 -4.83,7.59 -3.86,6.24 -7.43,12.48 -10.64,18.62 -2.72,5.27 -5.85,12.07 -9.3,20.28 -4.6,11.06 -4.6,11.67 -4.6,12.13 0,0.84 -0.09,1.66 -0.13,2.49 l 3.38,-0.87 C 494,204.4 510,200.76 520.6,199.15 q 9,-1.36 18.06,-2.61 5.21,-9.87 10.49,-19.53 c 0,-0.1 -32.31,4.94 -38.88,6.21 2.45,-5.56 4.74,-10.4 6.8,-14.35 3.63,-0.62 31.61,-4.26 31.62,-4.18 1.43,-2.49 2.87,-4.91 4.3,-7.39 2,-3.4 3.94,-6.83 5.93,-10.19 0,-0.06 -25.21,2.62 -32.05,3.53 l 1,-1.44 c 0,0 6.59,-9.71 6.95,-10.2 8.1,-0.92 18.12,-1.79 30,-2.48 q 5.47,-0.32 11,-0.61 5.24,-9.11 10.52,-18 z" />
      </g>
    </g>
  </g>
  <g
     id="layer 6"
     inkscape:label="Layer 6"
     inkscape:groupmode="layer"
     style="display:inline"
     transform="translate(-1.5120245,-4.0682086)">
&gt;
    <g
   id="g1102"
   transform="matrix(0.075,0,0,0.075,11.551339,129.80447)">
  <path
     style="fill:#231f20"
     inkscape:connector-curvature="0"
     id="path1064"
     d="M 240,250 H 340 V 200 H 440 V 0 H 240 Z M 340,50 h 50 V 150 H 340 Z M 480,0 V 200 H 580 V 50 h 50 v 150 h 50 V 50 h 50 v 150 h 50 V 0 Z M 0,200 H 100 V 50 h 50 v 150 h 50 V 0 H 0 Z" />
</g>
</g>
  <g
     id="layer 7"
     inkscape:label="Layer 7"
     inkscape:groupmode="layer"
     style="display:inline"
     transform="translate(-1.5120245,-4.0682086)">
    <g
       id="g1099"
       transform="matrix(0.2,0,0,0.2,31.543331,190.49676)">
      <path
         style="fill:#689f63"
         inkscape:connector-curvature="0"
         id="path1067"
         d="m 218.647,270.93 c -1.46,0 -2.91,-0.383 -4.19,-1.12 l -13.337,-7.896 c -1.992,-1.114 -1.02,-1.508 -0.363,-1.735 2.656,-0.93 3.195,-1.14 6.03,-2.75 0.298,-0.17 0.688,-0.11 0.993,0.07 l 10.246,6.08 c 0.37,0.2 0.895,0.2 1.238,0 l 39.95,-23.06 c 0.37,-0.21 0.61,-0.64 0.61,-1.08 v -46.1 c 0,-0.46 -0.24,-0.87 -0.618,-1.1 l -39.934,-23.04 c -0.37,-0.22 -0.86,-0.22 -1.23,0 l -39.926,23.04 c -0.387,0.22 -0.633,0.65 -0.633,1.09 v 46.1 c 0,0.44 0.24,0.86 0.62,1.07 l 10.94,6.32 c 5.94,2.97 9.57,-0.53 9.57,-4.05 v -45.5 c 0,-0.65 0.51,-1.15 1.16,-1.15 h 5.06 c 0.63,0 1.15,0.5 1.15,1.15 v 45.52 c 0,7.92 -4.32,12.47 -11.83,12.47 -2.31,0 -4.13,0 -9.21,-2.5 l -10.48,-6.04 a 8.447,8.447 0 0 1 -4.19,-7.29 v -46.1 c 0,-3 1.6,-5.8 4.19,-7.28 l 39.99,-23.07 c 2.53,-1.43 5.89,-1.43 8.4,0 l 39.94,23.08 a 8.428,8.428 0 0 1 4.19,7.28 v 46.1 c 0,2.99 -1.61,5.78 -4.19,7.28 l -39.94,23.07 a 8.397,8.397 0 0 1 -4.21,1.12" />
      <path
         style="fill:#689f63"
         inkscape:connector-curvature="0"
         id="path1069"
         d="m 230.987,239.164 c -17.48,0 -21.145,-8.024 -21.145,-14.754 0,-0.64 0.516,-1.15 1.157,-1.15 h 5.16 c 0.57,0 1.05,0.415 1.14,0.978 0.78,5.258 3.1,7.91 13.67,7.91 8.42,0 12,-1.902 12,-6.367 0,-2.57 -1.02,-4.48 -14.1,-5.76 -10.94,-1.08 -17.7,-3.49 -17.7,-12.24 0,-8.06 6.8,-12.86 18.19,-12.86 12.79,0 19.13,4.44 19.93,13.98 a 1.164,1.164 0 0 1 -1.16,1.26 h -5.19 c -0.54,0 -1.01,-0.38 -1.12,-0.9 -1.25,-5.53 -4.27,-7.3 -12.48,-7.3 -9.19,0 -10.26,3.2 -10.26,5.6 0,2.91 1.26,3.76 13.66,5.4 12.28,1.63 18.11,3.93 18.11,12.56 0,8.7 -7.26,13.69 -19.92,13.69 m 48.66,-48.89 h 1.34 c 1.1,0 1.31,-0.77 1.31,-1.22 0,-1.18 -0.81,-1.18 -1.26,-1.18 h -1.38 z m -1.63,-3.78 h 2.97 c 1.02,0 3.02,0 3.02,2.28 0,1.59 -1.02,1.92 -1.63,2.12 1.19,0.08 1.27,0.86 1.43,1.96 0.08,0.69 0.21,1.88 0.45,2.28 h -1.83 c -0.05,-0.4 -0.33,-2.6 -0.33,-2.72 -0.12,-0.49 -0.29,-0.73 -0.9,-0.73 h -1.51 v 3.46 h -1.67 z m -3.57,4.3 c 0,3.58 2.89,6.48 6.44,6.48 3.58,0 6.47,-2.96 6.47,-6.48 0,-3.59 -2.93,-6.44 -6.48,-6.44 -3.5,0 -6.44,2.81 -6.44,6.43 m 14.16,0.03 c 0,4.24 -3.47,7.7 -7.7,7.7 -4.2,0 -7.7,-3.42 -7.7,-7.7 0,-4.36 3.58,-7.7 7.7,-7.7 4.15,0 7.69,3.35 7.69,7.7" />
      <path
         style="fill:#cccccc;fill-rule:evenodd"
         inkscape:connector-curvature="0"
         id="path1071"
         d="m 94.936,90.55 c 0,-1.84 -0.97,-3.53 -2.558,-4.445 L 50.022,61.735 a 4.946,4.946 0 0 0 -2.328,-0.67 h -0.438 c -0.812,0.03 -1.613,0.25 -2.34,0.67 L 2.562,86.105 A 5.154,5.154 0 0 0 0,90.555 l 0.093,65.64 c 0,0.91 0.47,1.76 1.27,2.21 0.78,0.48 1.76,0.48 2.54,0 l 25.18,-14.42 c 1.59,-0.946 2.56,-2.618 2.56,-4.44 V 108.88 a 5.1,5.1 0 0 1 2.555,-4.43 l 10.72,-6.174 a 5.086,5.086 0 0 1 2.56,-0.688 c 0.876,0 1.77,0.226 2.544,0.687 l 10.715,6.172 c 1.586,0.91 2.56,2.6 2.56,4.43 v 30.663 c 0,1.82 0.983,3.5 2.565,4.44 l 25.164,14.41 a 2.5,2.5 0 0 0 2.56,0 2.568,2.568 0 0 0 1.268,-2.21 z m 199.868,34.176 c 0,0.457 -0.243,0.88 -0.64,1.106 l -14.548,8.386 a 1.282,1.282 0 0 1 -1.277,0 l -14.55,-8.386 c -0.4,-0.227 -0.64,-0.65 -0.64,-1.106 V 107.93 c 0,-0.458 0.24,-0.88 0.63,-1.11 l 14.54,-8.4 c 0.4,-0.23 0.89,-0.23 1.29,0 l 14.55,8.4 c 0.4,0.23 0.64,0.652 0.64,1.11 z m 3.93,-124.402 a 2.568,2.568 0 0 0 -2.544,0.027 c -0.78,0.46 -1.262,1.3 -1.262,2.21 v 65 a 1.788,1.788 0 0 1 -2.684,1.55 L 281.634,63 a 5.108,5.108 0 0 0 -5.112,0 l -42.37,24.453 a 5.105,5.105 0 0 0 -2.56,4.42 v 48.92 c 0,1.83 0.977,3.51 2.56,4.43 l 42.37,24.47 c 1.582,0.91 3.53,0.91 5.117,0 l 42.37,-24.48 c 1.58,-0.92 2.56,-2.6 2.56,-4.43 V 18.863 a 5.128,5.128 0 0 0 -2.63,-4.47 z m 141.093,107.164 a 5.116,5.116 0 0 0 2.543,-4.422 V 91.21 c 0,-1.824 -0.97,-3.507 -2.547,-4.425 l -42.1,-24.44 a 5.113,5.113 0 0 0 -5.13,0 l -42.36,24.45 c -1.59,0.92 -2.56,2.6 -2.56,4.43 v 48.9 c 0,1.84 0.99,3.54 2.58,4.45 l 42.09,23.99 c 1.55,0.89 3.45,0.9 5.02,0.03 l 25.46,-14.15 c 0.8,-0.45 1.31,-1.3 1.31,-2.22 0,-0.92 -0.49,-1.78 -1.29,-2.23 l -42.62,-24.46 c -0.8,-0.45 -1.29,-1.3 -1.29,-2.21 v -15.34 c 0,-0.916 0.48,-1.76 1.28,-2.216 l 13.26,-7.65 c 0.79,-0.46 1.76,-0.46 2.55,0 l 13.27,7.65 c 0.79,0.45 1.28,1.3 1.28,2.21 v 12.06 c 0,0.91 0.49,1.76 1.28,2.22 0.79,0.45 1.77,0.45 2.56,-0.01 z m 0,0" />
      <path
         style="fill:#689f63;fill-rule:evenodd"
         inkscape:connector-curvature="0"
         id="path1073"
         d="m 394.538,105.2 a 0.97,0.97 0 0 1 0.98,0 l 8.13,4.69 c 0.304,0.176 0.49,0.5 0.49,0.85 v 9.39 c 0,0.35 -0.186,0.674 -0.49,0.85 l -8.13,4.69 a 0.97,0.97 0 0 1 -0.98,0 l -8.125,-4.69 a 0.979,0.979 0 0 1 -0.5,-0.85 v -9.39 c 0,-0.35 0.18,-0.674 0.49,-0.85 z m 0,0" />
      <g
         id="g1077"
         transform="translate(-78.306,-164.016)"
         clip-path="url(#a)">
        <path
           style="fill:url(#b)"
           inkscape:connector-curvature="0"
           id="path1075"
           d="m 331.363,246.793 -118.715,-58.19 -60.87,124.174 118.712,58.193 z m 0,0" />
      </g>
      <g
         id="g1081"
         transform="translate(-78.306,-164.016)"
         clip-path="url(#c)">
        <path
           style="fill:url(#d)"
           inkscape:connector-curvature="0"
           id="path1079"
           d="m 144.07,264.004 83.825,113.453 110.86,-81.906 -83.83,-113.45 z m 0,0" />
      </g>
      <g
         id="g1085"
         transform="translate(-78.306,-164.016)"
         clip-path="url(#e)">
        <path
           style="fill:url(#f)"
           inkscape:connector-curvature="0"
           id="path1083"
           d="m 197.02,225.934 v 107.43 h 91.683 v -107.43 z m 0,0" />
      </g>
    </g>
  </g>
  <g
     id="layer 8"
     inkscape:label="Layer 8"
     inkscape:groupmode="layer"
     style="display:inline"
     transform="translate(-1.5120245,-4.0682086)">
    <g
       id="g1080"
       transform="matrix(0.0375,0,0,0.0375,9.6285221,165.17961)">
      <path
         id="path1065"
         d="M 387,0 774,218.9 V 656.8 L 387,875.7 0,656.8 V 218.9 Z"
         inkscape:connector-curvature="0"
         style="fill:#cccccc" />
      <path
         id="path1068"
         d="M 704.9,641.7 399.8,814.3 V 679.9 L 589.9,575.3 Z m 20.9,-18.9 V 261.9 l -111.6,64.5 v 232 z M 67.9,641.7 373,814.3 V 679.9 L 182.8,575.3 Z M 47,622.8 V 261.9 l 111.6,64.5 v 232 z M 60.1,238.5 373,61.5 v 129.9 l -200.5,110.3 -1.6,0.9 z m 652.6,0 -312.9,-177 v 129.9 l 200.5,110.2 1.6,0.9 z"
         inkscape:connector-curvature="0"
         style="fill:#8ed6fb" />
      <path
         id="path1070"
         d="M 373,649.3 185.4,546.1 V 341.8 L 373,450.1 Z m 26.8,0 187.6,-103.1 V 341.8 L 399.8,450.1 Z M 198.1,318.2 386.4,214.7 574.7,318.2 386.4,426.9 Z"
         inkscape:connector-curvature="0"
         style="fill:#1c78c0" />
      <path
         id="path1072"
         d="m 1164.3,576.3 h 82.5 l 84.1,-280.2 h -80.4 l -49.8,198.8 -53.1,-198.8 H 1078 l -53.6,198.8 -49.3,-198.8 h -80.4 l 83.6,280.2 h 82.5 l 52,-179.5 z M 1335.2,437 c 0,84.1 57.3,146.3 147.4,146.3 69.7,0 107.2,-41.8 117.9,-61.6 l -48.8,-37 c -8,11.8 -30,34.3 -68.1,34.3 -41.3,0 -71.3,-26.8 -72.9,-64.3 H 1608 c 0.5,-5.4 0.5,-10.7 0.5,-16.1 0,-91.6 -49.3,-149.5 -136.1,-149.5 -79.9,0 -137.2,63.2 -137.2,147.9 z m 77.7,-30.6 c 3.2,-32.1 25.7,-56.8 60.6,-56.8 33.8,0 58.4,22.5 60,56.8 z m 223.5,169.9 h 69.7 v -28.9 c 7.5,9.1 35.4,35.9 83.1,35.9 80.4,0 137.2,-60.5 137.2,-146.8 0,-86.8 -52.5,-147.3 -132.9,-147.3 -48.2,0 -76.1,26.8 -83.1,36.4 V 188.9 h -73.9 V 576.3 Z M 1708.2,437 c 0,-52.5 31.1,-82.5 71.8,-82.5 42.9,0 71.8,33.8 71.8,82.5 0,49.8 -30,80.9 -71.8,80.9 -45,0 -71.8,-36.5 -71.8,-80.9 z m 247,239.5 h 73.9 V 547.3 c 7,9.1 34.8,35.9 83.1,35.9 80.4,0 132.9,-60.5 132.9,-147.3 0,-85.7 -56.8,-146.8 -137.2,-146.8 -47.7,0 -75.6,26.8 -83.1,36.4 V 296 h -69.7 V 676.5 Z M 2027,435.4 c 0,-44.5 26.8,-80.9 71.8,-80.9 41.8,0 71.8,31.1 71.8,80.9 0,48.8 -28.9,82.5 -71.8,82.5 -40.7,0 -71.8,-30 -71.8,-82.5 z m 231.5,54.1 c 0,58.9 48.2,93.8 105,93.8 32.2,0 53.6,-9.6 68.1,-25.2 l 4.8,18.2 h 65.4 V 398.9 c 0,-62.7 -26.8,-109.8 -116.8,-109.8 -42.9,0 -85.2,16.1 -110.4,33.2 l 27.9,50.4 a 165.2,165.2 0 0 1 74.5,-19.8 c 32.7,0 50.9,16.6 50.9,41.3 v 18.2 c -10.2,-7 -32.2,-15.5 -60.6,-15.5 -65.4,-0.1 -108.8,37.4 -108.8,92.6 z m 73.9,-2.2 c 0,-23 19.8,-39.1 48.2,-39.1 28.4,0 48.8,14.5 48.8,39.1 0,23.6 -20.4,38.6 -48.2,38.6 -27.8,0 -48.8,-15.5 -48.8,-38.6 z m 348.9,30.6 c -46.6,0 -79.8,-33.8 -79.8,-81.4 0,-45 29.5,-82 77.2,-82 a 95.2,95.2 0 0 1 65.4,26.8 l 20.9,-62.2 a 142.6,142.6 0 0 0 -88.4,-30 c -85.2,0 -149,62.7 -149,147.9 0,85.2 62.2,146.3 149.5,146.3 a 141,141 0 0 0 87.3,-30 l -19.8,-60.5 c -12.4,10.1 -34.9,25.1 -63.3,25.1 z m 110.9,58.4 h 73.9 V 431.6 l 93.8,144.7 h 86.8 L 2940.6,423 3039.2,296 h -83.1 l -90,117.9 v -225 h -73.9 z"
         inkscape:connector-curvature="0"
         style="fill:#d5dada" />
    </g>
  </g>
</svg>
