<?xml version="1.0" encoding="UTF-8" standalone="no"?>
<svg
   xmlns:dc="http://purl.org/dc/elements/1.1/"
   xmlns:cc="http://creativecommons.org/ns#"
   xmlns:rdf="http://www.w3.org/1999/02/22-rdf-syntax-ns#"
   xmlns:svg="http://www.w3.org/2000/svg"
   xmlns="http://www.w3.org/2000/svg"
   id="svg8"
   version="1.1"
   viewBox="0 0 178 178">
  <metadata
     id="metadata5">
    <rdf:RDF>
      <cc:Work
         rdf:about="">
        <dc:format>image/svg+xml</dc:format>
        <dc:type
           rdf:resource="http://purl.org/dc/dcmitype/StillImage" />
        <dc:title></dc:title>
      </cc:Work>
    </rdf:RDF>
  </metadata>
  <g
     transform="translate(-14.934968,-54.155206)"
     id="layer1">
    <path
       d="m 172.79126,198.66081 -37.81231,-12.78307 0.60027,39.91012 -26.35489,-29.97662 -19.435207,34.86331 -7.835692,-39.13796 -34.26304,20.47491 12.783071,-37.81231 -39.910118,0.60027 29.97662,-26.35489 -34.86331,-19.43521 39.137958,-7.83569 -20.474907,-34.263042 37.812311,12.783072 -0.60027,-39.910118 26.354887,29.97662 19.435207,-34.86331 7.83569,39.137958 34.26305,-20.474908 -12.78308,37.812308 39.91012,-0.60027 -29.97662,26.35489 34.86331,19.43521 -39.13796,7.83569 z"
       id="path832"
       style="fill:#ffdd55;stroke:#000000;stroke-width:0.51919335;stroke-miterlimit:4;stroke-dasharray:none;stroke-opacity:1" />
    <path
       style="fill:none;stroke:#000000;stroke-width:0.37527251;stroke-miterlimit:4;stroke-dasharray:none;stroke-opacity:1"
       id="path834"
       d="m 153.60182,183.17219 -27.33071,-9.23959 0.43388,28.847 -19.04929,-21.66708 -14.047759,25.19918 -5.663632,-28.28889 -24.765299,14.79925 9.239594,-27.33071 -28.847001,0.43387 21.667077,-19.04929 -25.199173,-14.04775 28.288885,-5.66363 -14.799247,-24.7653 27.330709,9.23959 -0.433875,-28.847 19.049292,21.66708 14.047759,-25.199176 5.66363,28.288886 24.7653,-14.799247 -9.2396,27.330707 28.847,-0.43387 -21.66707,19.04929 25.19917,14.04775 -28.28889,5.66363 z" />
    <path
       d="m 145.63082,176.73846 -22.97681,-7.76769 0.36476,24.25155 -16.01466,-18.21542 -11.809891,21.18484 -4.76139,-23.78235 -20.820084,12.44167 7.76769,-22.97681 -24.251556,0.36475 18.215424,-16.01466 -21.184842,-11.80988 23.78235,-4.76139 -12.441668,-20.82009 22.976814,7.76769 -0.364758,-24.251553 16.014661,18.215423 11.80989,-21.184841 4.76139,23.782351 20.82008,-12.44167 -7.76769,22.97682 24.25156,-0.36476 -18.21543,16.01466 21.18485,11.80988 -23.78235,4.7614 z"
       id="path836"
       style="fill:none;stroke:#000000;stroke-width:0.31549001;stroke-miterlimit:4;stroke-dasharray:none;stroke-opacity:1" />
    <path
       transform="scale(0.26458333)"
       id="path4548"
       d="m 343.71825,723.60245 c -5.70535,-28.58266 -10.64703,-51.96386 -10.98152,-51.95821 -0.33449,0.006 -20.85816,12.10651 -45.60816,26.89082 -24.75,14.78431 -45.12074,26.56746 -45.26831,26.18479 -0.14758,-0.38267 7.16492,-22.6516 16.25,-49.48651 9.08507,-26.83491 16.51831,-49.25818 16.51831,-49.82949 0,-0.71393 -16.65085,-0.82337 -53.25,-0.35001 l -53.25,0.68872 3.77146,-3.3043 c 58.82311,-51.53673 75.61529,-66.47898 75.63691,-67.30429 0.0144,-0.55 -20.63606,-12.475 -45.88993,-26.5 -25.25387,-14.025 -45.60165,-25.77089 -45.21728,-26.10199 0.38436,-0.33109 23.60323,-5.16048 51.59749,-10.73198 27.99426,-5.5715 51.09276,-10.32411 51.33001,-10.56135 0.23724,-0.23725 -11.75341,-20.7966 -26.6459,-45.68744 -14.89249,-24.89084 -26.91993,-45.4134 -26.72765,-45.60568 0.19229,-0.19229 22.94679,7.29651 50.56556,16.64177 l 50.21594,16.99138 -0.72145,-52.97236 c -0.39681,-29.13479 -0.45243,-52.97235 -0.12362,-52.97235 0.32882,0 15.30859,16.7625 33.28839,37.25 17.9798,20.4875 33.67674,38.28682 34.88208,39.55405 l 2.19154,2.30405 25.89718,-46.49676 c 14.24345,-25.57322 26.08528,-46.30866 26.31518,-46.07877 0.22989,0.2299 5.01524,23.39024 10.63409,51.46743 5.61885,28.07719 10.47445,51.30778 10.79021,51.62355 0.31576,0.31576 20.95344,-11.59656 45.86151,-26.47183 24.90807,-14.87526 45.40739,-26.92594 45.55403,-26.7793 0.14665,0.14665 -7.3881,22.91385 -16.74388,50.59379 l -17.01052,50.32715 53.6713,-0.73459 53.67131,-0.73459 -25.93181,22.83791 c -14.26249,12.56085 -32.3235,28.44554 -40.13557,35.29932 -7.81207,6.85377 -13.8714,12.77791 -13.46517,13.16473 0.40622,0.38683 21.10109,12.05229 45.98859,25.92325 24.8875,13.87095 45.25,25.50289 45.25,25.84876 0,0.34586 -21.2625,4.86749 -47.25,10.04806 -58.88709,11.73907 -55.75,11.06318 -55.75,12.01151 0,0.43766 12.0833,20.98872 26.85177,45.66901 14.76848,24.6803 26.58098,44.98143 26.25,45.11362 -0.33097,0.13219 -22.87677,-7.3248 -50.10177,-16.5711 -27.225,-9.2463 -49.7505,-16.55446 -50.05666,-16.24036 -0.30617,0.31411 -0.18604,22.62111 0.26694,49.57111 0.45299,26.95 0.70348,50.68536 0.55667,52.74524 -0.26627,3.73577 -0.35549,3.64436 -35.26695,-36.13558 -19.25,-21.93445 -35.31074,-39.59481 -35.69053,-39.24524 -0.37979,0.34957 -11.9492,20.84499 -25.70979,45.54537 -13.7606,24.70039 -25.38318,45.27371 -25.82796,45.71849 -0.44478,0.44478 -5.4767,-22.57713 -11.18204,-51.1598 z m 38.41032,-19.96848 c 11.4292,-20.625 21.27978,-38.03972 21.89018,-38.69938 0.83825,-0.90589 8.08232,6.75709 29.60418,31.31616 15.6719,17.88354 29.35061,33.27326 30.39715,34.19937 1.86828,1.65331 1.89078,0.85411 1.24055,-44.06615 -0.39488,-27.27915 -0.2951,-45.75 0.24712,-45.75 0.50016,0 20.08195,6.50623 43.5151,14.4583 23.43314,7.95206 42.60572,14.06864 42.60572,13.59239 0,-0.47625 -10.1398,-17.78425 -22.53288,-38.4622 -12.39309,-20.67796 -22.76528,-38.2019 -23.04932,-38.94209 -0.39911,-1.04008 9.60362,-3.3644 44.03289,-10.23185 24.50212,-4.88732 44.54931,-9.18683 44.54931,-9.55446 0,-0.36762 -17.2125,-10.23185 -38.25,-21.9205 -21.0375,-11.68865 -38.82537,-21.77322 -39.5286,-22.41015 -1.00422,-0.90955 6.02371,-7.56917 32.75,-31.03368 18.71573,-16.43158 34.0286,-30.20407 34.0286,-30.60554 0,-0.40146 -4.1625,-0.54782 -9.25,-0.32524 -5.0875,0.22258 -25.74628,0.60625 -45.90839,0.8526 l -36.6584,0.4479 14.55435,-42.95345 c 8.00489,-23.6244 14.3014,-43.2064 13.99225,-43.51555 -0.30915,-0.30916 -17.9916,9.8334 -39.29433,22.539 -21.30272,12.70561 -38.8967,22.93663 -39.09773,22.73561 -0.20102,-0.20103 -4.20085,-19.67176 -8.88849,-43.2683 -4.68765,-23.59653 -8.84931,-43.71287 -9.24814,-44.70298 -0.53872,-1.3374 -6.34309,8.303 -22.57829,37.5 -12.01924,21.61511 -22.17944,39.65579 -22.57822,40.09041 -0.39878,0.43463 -14.18079,-14.52787 -30.62668,-33.25 -16.44589,-18.72212 -30.21388,-34.04022 -30.59552,-34.04022 -0.66101,0 -0.23586,57.19954 0.59874,80.55323 l 0.39501,11.05323 -42.15808,-14.20652 c -23.18694,-7.81358 -42.94558,-14.52318 -43.90808,-14.91022 -0.9625,-0.38703 -1.75,-0.47893 -1.75,-0.20422 0,0.27472 10.05502,17.31037 22.34448,37.85699 12.28946,20.54663 22.84722,38.30821 23.46168,39.47017 1.10001,2.08016 0.43707,2.24776 -43.09448,10.89536 -24.31642,4.83048 -44.53254,9.06065 -44.92471,9.40037 -0.39217,0.33973 16.65019,10.28682 37.87192,22.10465 21.22173,11.81783 39.19677,21.93696 39.94454,22.48696 1.04114,0.76578 -6.73335,8.1073 -33.19361,31.34498 -19.00425,16.68975 -34.40843,30.46053 -34.2315,30.60174 0.17692,0.14121 20.79668,-0.0795 45.82168,-0.49039 25.025,-0.41093 45.65327,-0.60344 45.84061,-0.42779 0.18733,0.17564 -6.23491,19.76883 -14.27164,43.54043 -8.03674,23.77159 -14.48483,43.3485 -14.32909,43.50425 0.15575,0.15574 17.97994,-10.29507 39.60933,-23.22401 21.62938,-12.92895 39.44252,-23.35914 39.58474,-23.1782 0.14222,0.18095 4.25725,20.45844 9.1445,45.0611 6.68401,33.64764 9.16533,44.42679 10.01355,43.5 0.6202,-0.67766 10.4788,-18.10711 21.908,-38.73211 z"
       style="fill:#ff6600;stroke:#000000;stroke-width:3;stroke-miterlimit:4;stroke-dasharray:none;stroke-opacity:1" />
    <path
       transform="scale(0.26458333)"
       id="path4550"
       d="m 351.51847,694.54088 c -4.61445,-23.1512 -8.67407,-42.55396 -9.02138,-43.11725 -0.36533,-0.5925 -16.57975,8.48622 -38.46986,21.5399 -20.8111,12.41023 -37.95656,22.44587 -38.10102,22.30141 -0.14446,-0.14446 6.02948,-19.127 13.71986,-42.18342 7.69037,-23.05642 13.9825,-42.02441 13.9825,-42.15109 0,-0.12668 -20.1375,0.0153 -44.75,0.31543 -43.43491,0.52972 -44.68707,0.49202 -42.60868,-1.28306 13.52577,-11.55191 64.35868,-56.91095 64.35868,-57.42832 0,-0.37636 -5.5125,-3.72428 -12.25,-7.43983 -33.46825,-18.45683 -63.75,-35.7054 -63.75,-36.31216 0,-0.3733 19.0125,-4.4483 42.25,-9.05557 23.2375,-4.60726 42.60017,-8.68564 43.02816,-9.06306 0.42799,-0.37741 -9.37959,-17.69346 -21.79462,-38.4801 -12.41503,-20.78663 -22.41752,-37.94914 -22.22776,-38.1389 0.18975,-0.18976 19.1193,6.0057 42.06565,13.76768 22.94635,7.76198 41.87166,13.93466 42.05625,13.71706 0.18458,-0.21759 0.0407,-19.74563 -0.31974,-43.39563 -0.36045,-23.65 -0.35514,-43.3683 0.0118,-43.81844 0.36693,-0.45014 13.57311,13.83736 29.34707,31.75 15.77394,17.91264 29.01697,32.56844 29.42894,32.56844 0.41197,0 10.20115,-16.92474 21.75372,-37.61054 11.55258,-20.68579 21.4311,-37.58319 21.95226,-37.54978 0.52117,0.0334 4.76613,19.20815 9.43325,42.61053 4.66712,23.40239 8.82935,42.54979 9.2494,42.54979 0.42006,0 17.44239,-9.94677 37.82742,-22.10393 20.38502,-12.15716 37.32037,-21.84723 37.63411,-21.53349 0.31374,0.31374 -5.56449,18.80325 -13.06274,41.08781 -7.49824,22.28456 -13.63317,40.97683 -13.63317,41.53837 0,0.6893 14.29428,0.80409 44,0.35332 24.2,-0.36721 44,-0.39566 44,-0.0632 0,0.33246 -14.88933,13.73487 -33.08739,29.78313 l -33.08739,29.17867 3.83739,2.16113 c 2.11056,1.18863 19.48371,10.89066 38.60699,21.56007 19.12328,10.6694 34.42328,19.73023 34,20.13517 -0.42328,0.40494 -19.4446,4.43998 -42.2696,8.96674 -22.825,4.52677 -41.90239,8.58916 -42.39419,9.02754 -0.4985,0.44435 9.08407,17.52648 21.65506,38.60286 12.40209,20.7932 22.43277,37.92751 22.29041,38.07626 -0.14236,0.14874 -18.92687,-6.03876 -41.74335,-13.75 -22.81648,-7.71125 -41.82685,-14.02045 -42.24527,-14.02045 -0.41842,0 -0.44101,20.1375 -0.0502,44.75 0.48132,30.31245 0.38265,44.42737 -0.30586,43.75 -0.55904,-0.55 -13.67066,-15.4 -29.13694,-33 -15.46628,-17.6 -28.6024,-32 -29.19138,-32 -0.58898,0 -10.55563,16.9875 -22.1481,37.75 -11.59246,20.7625 -21.38618,37.75 -21.7638,37.75 -0.37762,0 -4.46204,-18.94189 -9.07648,-42.09309 z"
       style="fill:#aa0000;stroke:#000000;stroke-width:3;stroke-miterlimit:4;stroke-dasharray:none;stroke-opacity:1" />
  </g>
</svg>
